<svg width="593" height="315" viewBox="0 0 593 315" fill="none" xmlns="http://www.w3.org/2000/svg">
<rect width="593" height="315" rx="6" fill="#EEEEEE"/>
<rect x="25.5" y="110.5" width="73" height="33" rx="1.5" fill="#DEDEDE" stroke="#4472C4"/>
<rect x="420.5" y="141.5" width="65" height="33" rx="1.5" fill="#DEDEDE" stroke="#4472C4"/>
<rect x="25.5" y="173.5" width="73" height="33" rx="1.5" fill="#DEDEDE" stroke="#4472C4"/>
<path d="M47.8892 130V124.182H49.9631C50.4157 124.182 50.7907 124.264 51.0881 124.429C51.3854 124.594 51.608 124.819 51.7557 125.105C51.9034 125.389 51.9773 125.709 51.9773 126.065C51.9773 126.423 51.9025 126.745 51.7528 127.031C51.6051 127.315 51.3816 127.541 51.0824 127.707C50.785 127.872 50.411 127.955 49.9602 127.955H48.5341V127.21H49.8807C50.1667 127.21 50.3987 127.161 50.5767 127.062C50.7547 126.962 50.8854 126.826 50.9688 126.653C51.0521 126.481 51.0938 126.285 51.0938 126.065C51.0938 125.846 51.0521 125.651 50.9688 125.48C50.8854 125.31 50.7538 125.176 50.5739 125.08C50.3958 124.983 50.161 124.935 49.8693 124.935H48.767V130H47.8892ZM56.9439 126.02C56.889 125.848 56.8151 125.693 56.7223 125.557C56.6314 125.419 56.5225 125.301 56.3956 125.205C56.2687 125.106 56.1238 125.031 55.9609 124.98C55.8 124.929 55.6229 124.903 55.4297 124.903C55.102 124.903 54.8066 124.988 54.5433 125.156C54.2801 125.325 54.0717 125.572 53.9183 125.898C53.7668 126.222 53.6911 126.618 53.6911 127.088C53.6911 127.56 53.7678 127.958 53.9212 128.284C54.0746 128.61 54.2848 128.857 54.5518 129.026C54.8189 129.194 55.1229 129.278 55.4638 129.278C55.7801 129.278 56.0556 129.214 56.2905 129.085C56.5272 128.956 56.71 128.775 56.8388 128.54C56.9695 128.303 57.0348 128.025 57.0348 127.705L57.2621 127.747H55.5973V127.023H57.8842V127.685C57.8842 128.173 57.7801 128.598 57.5717 128.957C57.3653 129.315 57.0793 129.592 56.7138 129.787C56.3501 129.982 55.9335 130.08 55.4638 130.08C54.9373 130.08 54.4751 129.958 54.0774 129.716C53.6816 129.473 53.3729 129.13 53.1513 128.685C52.9297 128.238 52.8189 127.707 52.8189 127.094C52.8189 126.63 52.8833 126.213 53.0121 125.844C53.1409 125.474 53.3217 125.161 53.5547 124.903C53.7895 124.644 54.0651 124.446 54.3814 124.31C54.6996 124.171 55.0471 124.102 55.424 124.102C55.7384 124.102 56.031 124.149 56.3018 124.241C56.5746 124.334 56.817 124.466 57.0291 124.636C57.2431 124.807 57.4202 125.009 57.5604 125.244C57.7005 125.477 57.7952 125.736 57.8445 126.02H56.9439ZM62.9361 126.02C62.8812 125.848 62.8073 125.693 62.7145 125.557C62.6236 125.419 62.5147 125.301 62.3878 125.205C62.2609 125.106 62.116 125.031 61.9531 124.98C61.7921 124.929 61.6151 124.903 61.4219 124.903C61.0942 124.903 60.7988 124.988 60.5355 125.156C60.2723 125.325 60.0639 125.572 59.9105 125.898C59.759 126.222 59.6832 126.618 59.6832 127.088C59.6832 127.56 59.7599 127.958 59.9134 128.284C60.0668 128.61 60.277 128.857 60.544 129.026C60.8111 129.194 61.1151 129.278 61.456 129.278C61.7723 129.278 62.0478 129.214 62.2827 129.085C62.5194 128.956 62.7022 128.775 62.831 128.54C62.9616 128.303 63.027 128.025 63.027 127.705L63.2543 127.747H61.5895V127.023H63.8764V127.685C63.8764 128.173 63.7723 128.598 63.5639 128.957C63.3575 129.315 63.0715 129.592 62.706 129.787C62.3423 129.982 61.9257 130.08 61.456 130.08C60.9295 130.08 60.4673 129.958 60.0696 129.716C59.6738 129.473 59.3651 129.13 59.1435 128.685C58.9219 128.238 58.8111 127.707 58.8111 127.094C58.8111 126.63 58.8755 126.213 59.0043 125.844C59.133 125.474 59.3139 125.161 59.5469 124.903C59.7817 124.644 60.0573 124.446 60.3736 124.31C60.6918 124.171 61.0393 124.102 61.4162 124.102C61.7306 124.102 62.0232 124.149 62.294 124.241C62.5668 124.334 62.8092 124.466 63.0213 124.636C63.2353 124.807 63.4124 125.009 63.5526 125.244C63.6927 125.477 63.7874 125.736 63.8366 126.02H62.9361ZM65.3026 130H64.3707L66.4645 124.182H67.4787L69.5724 130H68.6406L66.9957 125.239H66.9503L65.3026 130ZM65.4588 127.722H68.4815V128.46H65.4588V127.722ZM75.1087 124.182V130H74.3018L71.3445 125.733H71.2905V130H70.4126V124.182H71.2251L74.1854 128.455H74.2393V124.182H75.1087Z" fill="#0A0A0A"/>
<path d="M48.446 183.938V183.182H52.9489V183.938H51.1335V189H50.2585V183.938H48.446ZM54.5518 189.097C54.2753 189.097 54.0253 189.045 53.8018 188.943C53.5784 188.839 53.4013 188.688 53.2706 188.491C53.1418 188.295 53.0774 188.053 53.0774 187.767C53.0774 187.521 53.1248 187.318 53.2195 187.159C53.3142 187 53.442 186.874 53.603 186.781C53.764 186.688 53.9439 186.618 54.1428 186.571C54.3416 186.524 54.5443 186.488 54.7507 186.463C55.0121 186.433 55.2242 186.408 55.3871 186.389C55.55 186.368 55.6683 186.335 55.7422 186.29C55.8161 186.244 55.853 186.17 55.853 186.068V186.048C55.853 185.8 55.7829 185.608 55.6428 185.472C55.5045 185.335 55.2981 185.267 55.0234 185.267C54.7375 185.267 54.5121 185.33 54.3473 185.457C54.1844 185.582 54.0717 185.722 54.0092 185.875L53.2109 185.693C53.3056 185.428 53.4439 185.214 53.6257 185.051C53.8094 184.886 54.0206 184.767 54.2592 184.693C54.4979 184.617 54.7488 184.58 55.0121 184.58C55.1863 184.58 55.371 184.6 55.5661 184.642C55.763 184.682 55.9467 184.756 56.1172 184.864C56.2895 184.972 56.4306 185.126 56.5405 185.327C56.6503 185.526 56.7053 185.784 56.7053 186.102V189H55.8757V188.403H55.8416C55.7867 188.513 55.7043 188.621 55.5945 188.727C55.4846 188.833 55.3435 188.921 55.1712 188.991C54.9988 189.062 54.7924 189.097 54.5518 189.097ZM54.7365 188.415C54.9714 188.415 55.1721 188.368 55.3388 188.276C55.5073 188.183 55.6352 188.062 55.7223 187.912C55.8113 187.76 55.8558 187.598 55.8558 187.426V186.864C55.8255 186.894 55.7668 186.922 55.6797 186.949C55.5945 186.973 55.4969 186.995 55.3871 187.014C55.2772 187.031 55.1702 187.047 55.0661 187.062C54.9619 187.076 54.8748 187.087 54.8047 187.097C54.6399 187.117 54.4893 187.152 54.353 187.202C54.2185 187.251 54.1106 187.322 54.0291 187.415C53.9496 187.506 53.9098 187.627 53.9098 187.778C53.9098 187.989 53.9875 188.148 54.1428 188.256C54.2981 188.362 54.496 188.415 54.7365 188.415ZM57.8366 189V184.636H58.6577V185.33H58.7031C58.7827 185.095 58.9228 184.91 59.1236 184.776C59.3262 184.639 59.5554 184.571 59.8111 184.571C59.8641 184.571 59.9266 184.573 59.9986 184.577C60.0724 184.58 60.1302 184.585 60.1719 184.591V185.403C60.1378 185.394 60.0772 185.384 59.9901 185.372C59.9029 185.359 59.8158 185.352 59.7287 185.352C59.5279 185.352 59.349 185.395 59.1918 185.48C59.0365 185.563 58.9134 185.68 58.8224 185.83C58.7315 185.977 58.6861 186.146 58.6861 186.335V189H57.8366ZM62.5803 190.727C62.2337 190.727 61.9354 190.682 61.6854 190.591C61.4373 190.5 61.2346 190.38 61.0774 190.23C60.9202 190.08 60.8028 189.917 60.7251 189.739L61.4553 189.438C61.5064 189.521 61.5746 189.609 61.6598 189.702C61.7469 189.796 61.8643 189.877 62.0121 189.943C62.1617 190.009 62.3539 190.043 62.5888 190.043C62.9107 190.043 63.1768 189.964 63.3871 189.807C63.5973 189.652 63.7024 189.403 63.7024 189.062V188.205H63.6484C63.5973 188.297 63.5234 188.401 63.4268 188.514C63.3321 188.628 63.2015 188.726 63.0348 188.81C62.8681 188.893 62.6513 188.935 62.3842 188.935C62.0395 188.935 61.7289 188.854 61.4524 188.693C61.1778 188.53 60.96 188.291 60.799 187.974C60.6399 187.656 60.5604 187.265 60.5604 186.801C60.5604 186.337 60.639 185.939 60.7962 185.608C60.9553 185.277 61.1731 185.023 61.4496 184.847C61.7261 184.669 62.0395 184.58 62.3899 184.58C62.6607 184.58 62.8795 184.625 63.0462 184.716C63.2128 184.805 63.3426 184.909 63.4354 185.028C63.5301 185.148 63.603 185.253 63.6541 185.344H63.7166V184.636H64.549V189.097C64.549 189.472 64.4619 189.779 64.2876 190.02C64.1134 190.26 63.8776 190.438 63.5803 190.554C63.2848 190.67 62.9515 190.727 62.5803 190.727ZM62.5717 188.23C62.8161 188.23 63.0225 188.173 63.1911 188.06C63.3615 187.944 63.4903 187.779 63.5774 187.565C63.6664 187.349 63.7109 187.091 63.7109 186.79C63.7109 186.496 63.6674 186.238 63.5803 186.014C63.4931 185.791 63.3653 185.616 63.1967 185.491C63.0282 185.365 62.8198 185.301 62.5717 185.301C62.3161 185.301 62.103 185.367 61.9325 185.5C61.7621 185.631 61.6333 185.809 61.5462 186.034C61.4609 186.259 61.4183 186.511 61.4183 186.79C61.4183 187.076 61.4619 187.327 61.549 187.543C61.6361 187.759 61.7649 187.927 61.9354 188.048C62.1077 188.17 62.3198 188.23 62.5717 188.23ZM67.5689 189.088C67.139 189.088 66.7687 188.996 66.4581 188.812C66.1494 188.627 65.9107 188.366 65.7422 188.031C65.5755 187.694 65.4922 187.299 65.4922 186.847C65.4922 186.4 65.5755 186.006 65.7422 185.665C65.9107 185.324 66.1456 185.058 66.4467 184.866C66.7498 184.675 67.1039 184.58 67.5092 184.58C67.7554 184.58 67.9941 184.62 68.2251 184.702C68.4562 184.783 68.6636 184.911 68.8473 185.085C69.031 185.259 69.1759 185.486 69.282 185.764C69.388 186.041 69.4411 186.377 69.4411 186.773V187.074H65.9723V186.438H68.6087C68.6087 186.214 68.5632 186.016 68.4723 185.844C68.3814 185.67 68.2536 185.532 68.0888 185.432C67.9259 185.331 67.7346 185.281 67.5149 185.281C67.2763 185.281 67.0679 185.34 66.8899 185.457C66.7138 185.573 66.5774 185.724 66.4808 185.912C66.3861 186.098 66.3388 186.299 66.3388 186.517V187.014C66.3388 187.306 66.3899 187.554 66.4922 187.759C66.5964 187.963 66.7412 188.119 66.9268 188.227C67.1125 188.333 67.3293 188.386 67.5774 188.386C67.7384 188.386 67.8852 188.364 68.0178 188.318C68.1503 188.271 68.2649 188.201 68.3615 188.108C68.4581 188.015 68.532 187.901 68.5831 187.764L69.3871 187.909C69.3227 188.146 69.2071 188.353 69.0405 188.531C68.8757 188.707 68.6683 188.845 68.4183 188.943C68.1702 189.04 67.8871 189.088 67.5689 189.088ZM72.4205 184.636V185.318H70.0369V184.636H72.4205ZM70.6761 183.591H71.5256V187.719C71.5256 187.884 71.5502 188.008 71.5994 188.091C71.6487 188.172 71.7121 188.228 71.7898 188.259C71.8693 188.287 71.9555 188.301 72.0483 188.301C72.1165 188.301 72.1761 188.296 72.2273 188.287C72.2784 188.277 72.3182 188.27 72.3466 188.264L72.5 188.966C72.4508 188.985 72.3807 189.004 72.2898 189.023C72.1989 189.044 72.0852 189.055 71.9489 189.057C71.7254 189.061 71.517 189.021 71.3239 188.938C71.1307 188.854 70.9744 188.725 70.8551 188.551C70.7358 188.377 70.6761 188.158 70.6761 187.895V183.591ZM50.2781 197V192.636H51.0934V193.347H51.1474C51.2383 193.106 51.387 192.919 51.5934 192.784C51.7998 192.648 52.047 192.58 52.3349 192.58C52.6265 192.58 52.8709 192.648 53.0678 192.784C53.2667 192.92 53.4135 193.108 53.5082 193.347H53.5536C53.6578 193.114 53.8235 192.928 54.0508 192.79C54.2781 192.65 54.5489 192.58 54.8633 192.58C55.2591 192.58 55.582 192.704 55.832 192.952C56.0839 193.2 56.2099 193.574 56.2099 194.074V197H55.3604V194.153C55.3604 193.858 55.2799 193.644 55.119 193.511C54.958 193.379 54.7657 193.312 54.5423 193.312C54.2657 193.312 54.0508 193.398 53.8974 193.568C53.744 193.737 53.6673 193.954 53.6673 194.219V197H52.8207V194.099C52.8207 193.863 52.7468 193.672 52.5991 193.528C52.4513 193.384 52.2591 193.312 52.0224 193.312C51.8614 193.312 51.7127 193.355 51.5763 193.44C51.4419 193.524 51.333 193.64 51.2496 193.79C51.1682 193.939 51.1275 194.113 51.1275 194.31V197H50.2781ZM59.1864 197.088C58.7773 197.088 58.4203 196.994 58.1154 196.807C57.8105 196.619 57.5737 196.357 57.4052 196.02C57.2366 195.683 57.1523 195.289 57.1523 194.838C57.1523 194.385 57.2366 193.99 57.4052 193.651C57.5737 193.312 57.8105 193.048 58.1154 192.861C58.4203 192.673 58.7773 192.58 59.1864 192.58C59.5955 192.58 59.9525 192.673 60.2575 192.861C60.5624 193.048 60.7991 193.312 60.9677 193.651C61.1362 193.99 61.2205 194.385 61.2205 194.838C61.2205 195.289 61.1362 195.683 60.9677 196.02C60.7991 196.357 60.5624 196.619 60.2575 196.807C59.9525 196.994 59.5955 197.088 59.1864 197.088ZM59.1893 196.375C59.4544 196.375 59.6741 196.305 59.8484 196.165C60.0226 196.025 60.1514 195.838 60.2347 195.605C60.32 195.372 60.3626 195.116 60.3626 194.835C60.3626 194.557 60.32 194.301 60.2347 194.068C60.1514 193.833 60.0226 193.645 59.8484 193.503C59.6741 193.361 59.4544 193.29 59.1893 193.29C58.9222 193.29 58.7006 193.361 58.5245 193.503C58.3503 193.645 58.2205 193.833 58.1353 194.068C58.052 194.301 58.0103 194.557 58.0103 194.835C58.0103 195.116 58.052 195.372 58.1353 195.605C58.2205 195.838 58.3503 196.025 58.5245 196.165C58.7006 196.305 58.9222 196.375 59.1893 196.375ZM63.8022 197.085C63.4499 197.085 63.1355 196.995 62.859 196.815C62.5844 196.634 62.3685 196.375 62.2113 196.04C62.056 195.703 61.9783 195.298 61.9783 194.827C61.9783 194.355 62.0569 193.952 62.2141 193.616C62.3732 193.281 62.591 193.025 62.8675 192.847C63.1441 192.669 63.4575 192.58 63.8079 192.58C64.0787 192.58 64.2965 192.625 64.4613 192.716C64.628 192.805 64.7567 192.909 64.8477 193.028C64.9405 193.148 65.0124 193.253 65.0636 193.344H65.1147V191.182H65.9641V197H65.1346V196.321H65.0636C65.0124 196.414 64.9386 196.52 64.842 196.639C64.7473 196.759 64.6166 196.863 64.4499 196.952C64.2833 197.041 64.0674 197.085 63.8022 197.085ZM63.9897 196.361C64.234 196.361 64.4405 196.296 64.609 196.168C64.7795 196.037 64.9083 195.856 64.9954 195.625C65.0844 195.394 65.1289 195.125 65.1289 194.818C65.1289 194.515 65.0853 194.25 64.9982 194.023C64.9111 193.795 64.7833 193.618 64.6147 193.491C64.4461 193.365 64.2378 193.301 63.9897 193.301C63.734 193.301 63.521 193.367 63.3505 193.5C63.18 193.633 63.0513 193.813 62.9641 194.043C62.8789 194.272 62.8363 194.53 62.8363 194.818C62.8363 195.11 62.8799 195.372 62.967 195.605C63.0541 195.838 63.1829 196.023 63.3533 196.159C63.5257 196.294 63.7378 196.361 63.9897 196.361ZM69.0572 197.088C68.6272 197.088 68.257 196.996 67.9464 196.812C67.6377 196.627 67.399 196.366 67.2305 196.031C67.0638 195.694 66.9805 195.299 66.9805 194.847C66.9805 194.4 67.0638 194.006 67.2305 193.665C67.399 193.324 67.6339 193.058 67.935 192.866C68.238 192.675 68.5922 192.58 68.9975 192.58C69.2437 192.58 69.4824 192.62 69.7134 192.702C69.9445 192.783 70.1519 192.911 70.3356 193.085C70.5193 193.259 70.6642 193.486 70.7702 193.764C70.8763 194.041 70.9293 194.377 70.9293 194.773V195.074H67.4606V194.438H70.0969C70.0969 194.214 70.0515 194.016 69.9606 193.844C69.8697 193.67 69.7418 193.532 69.5771 193.432C69.4142 193.331 69.2229 193.281 69.0032 193.281C68.7646 193.281 68.5562 193.34 68.3782 193.457C68.2021 193.573 68.0657 193.724 67.9691 193.912C67.8744 194.098 67.8271 194.299 67.8271 194.517V195.014C67.8271 195.306 67.8782 195.554 67.9805 195.759C68.0846 195.963 68.2295 196.119 68.4151 196.227C68.6007 196.333 68.8176 196.386 69.0657 196.386C69.2267 196.386 69.3735 196.364 69.506 196.318C69.6386 196.271 69.7532 196.201 69.8498 196.108C69.9464 196.015 70.0202 195.901 70.0714 195.764L70.8754 195.909C70.811 196.146 70.6954 196.353 70.5288 196.531C70.364 196.707 70.1566 196.845 69.9066 196.943C69.6585 197.04 69.3754 197.088 69.0572 197.088ZM72.7212 191.182V197H71.8718V191.182H72.7212Z" fill="#0A0A0A"/>
<path d="M429.941 157H428.057V151.182H430C430.57 151.182 431.06 151.298 431.469 151.531C431.878 151.762 432.192 152.095 432.409 152.528C432.629 152.96 432.739 153.478 432.739 154.082C432.739 154.688 432.628 155.209 432.407 155.645C432.187 156.08 431.869 156.416 431.452 156.651C431.035 156.884 430.532 157 429.941 157ZM428.935 156.233H429.892C430.336 156.233 430.704 156.15 430.998 155.983C431.291 155.814 431.511 155.571 431.657 155.253C431.802 154.933 431.875 154.543 431.875 154.082C431.875 153.626 431.802 153.239 431.657 152.92C431.513 152.602 431.298 152.361 431.012 152.196C430.726 152.031 430.371 151.949 429.946 151.949H428.935V156.233ZM435.643 157.088C435.213 157.088 434.843 156.996 434.532 156.812C434.224 156.627 433.985 156.366 433.816 156.031C433.65 155.694 433.566 155.299 433.566 154.847C433.566 154.4 433.65 154.006 433.816 153.665C433.985 153.324 434.22 153.058 434.521 152.866C434.824 152.675 435.178 152.58 435.583 152.58C435.83 152.58 436.068 152.62 436.299 152.702C436.53 152.783 436.738 152.911 436.922 153.085C437.105 153.259 437.25 153.486 437.356 153.764C437.462 154.041 437.515 154.377 437.515 154.773V155.074H434.047V154.438H436.683C436.683 154.214 436.637 154.016 436.547 153.844C436.456 153.67 436.328 153.532 436.163 153.432C436 153.331 435.809 153.281 435.589 153.281C435.35 153.281 435.142 153.34 434.964 153.457C434.788 153.573 434.652 153.724 434.555 153.912C434.46 154.098 434.413 154.299 434.413 154.517V155.014C434.413 155.306 434.464 155.554 434.566 155.759C434.671 155.963 434.815 156.119 435.001 156.227C435.187 156.333 435.404 156.386 435.652 156.386C435.813 156.386 435.959 156.364 436.092 156.318C436.225 156.271 436.339 156.201 436.436 156.108C436.532 156.015 436.606 155.901 436.657 155.764L437.461 155.909C437.397 156.146 437.281 156.353 437.115 156.531C436.95 156.707 436.743 156.845 436.493 156.943C436.244 157.04 435.961 157.088 435.643 157.088ZM438.458 157V152.636H439.273V153.347H439.327C439.418 153.106 439.567 152.919 439.773 152.784C439.98 152.648 440.227 152.58 440.515 152.58C440.806 152.58 441.051 152.648 441.248 152.784C441.446 152.92 441.593 153.108 441.688 153.347H441.733C441.837 153.114 442.003 152.928 442.23 152.79C442.458 152.65 442.729 152.58 443.043 152.58C443.439 152.58 443.762 152.704 444.012 152.952C444.264 153.2 444.39 153.574 444.39 154.074V157H443.54V154.153C443.54 153.858 443.46 153.644 443.299 153.511C443.138 153.379 442.945 153.312 442.722 153.312C442.445 153.312 442.23 153.398 442.077 153.568C441.924 153.737 441.847 153.954 441.847 154.219V157H441V154.099C441 153.863 440.926 153.672 440.779 153.528C440.631 153.384 440.439 153.312 440.202 153.312C440.041 153.312 439.892 153.355 439.756 153.44C439.622 153.524 439.513 153.64 439.429 153.79C439.348 153.939 439.307 154.113 439.307 154.31V157H438.458ZM447.366 157.088C446.957 157.088 446.6 156.994 446.295 156.807C445.99 156.619 445.753 156.357 445.585 156.02C445.416 155.683 445.332 155.289 445.332 154.838C445.332 154.385 445.416 153.99 445.585 153.651C445.753 153.312 445.99 153.048 446.295 152.861C446.6 152.673 446.957 152.58 447.366 152.58C447.775 152.58 448.132 152.673 448.437 152.861C448.742 153.048 448.979 153.312 449.147 153.651C449.316 153.99 449.4 154.385 449.4 154.838C449.4 155.289 449.316 155.683 449.147 156.02C448.979 156.357 448.742 156.619 448.437 156.807C448.132 156.994 447.775 157.088 447.366 157.088ZM447.369 156.375C447.634 156.375 447.854 156.305 448.028 156.165C448.202 156.025 448.331 155.838 448.414 155.605C448.5 155.372 448.542 155.116 448.542 154.835C448.542 154.557 448.5 154.301 448.414 154.068C448.331 153.833 448.202 153.645 448.028 153.503C447.854 153.361 447.634 153.29 447.369 153.29C447.102 153.29 446.88 153.361 446.704 153.503C446.53 153.645 446.4 153.833 446.315 154.068C446.232 154.301 446.19 154.557 446.19 154.835C446.19 155.116 446.232 155.372 446.315 155.605C446.4 155.838 446.53 156.025 446.704 156.165C446.88 156.305 447.102 156.375 447.369 156.375ZM452.178 158.727C451.831 158.727 451.533 158.682 451.283 158.591C451.035 158.5 450.832 158.38 450.675 158.23C450.518 158.08 450.4 157.917 450.323 157.739L451.053 157.438C451.104 157.521 451.172 157.609 451.257 157.702C451.345 157.796 451.462 157.877 451.61 157.943C451.759 158.009 451.952 158.043 452.186 158.043C452.508 158.043 452.775 157.964 452.985 157.807C453.195 157.652 453.3 157.403 453.3 157.062V156.205H453.246C453.195 156.297 453.121 156.401 453.025 156.514C452.93 156.628 452.799 156.726 452.632 156.81C452.466 156.893 452.249 156.935 451.982 156.935C451.637 156.935 451.327 156.854 451.05 156.693C450.775 156.53 450.558 156.291 450.397 155.974C450.238 155.656 450.158 155.265 450.158 154.801C450.158 154.337 450.237 153.939 450.394 153.608C450.553 153.277 450.771 153.023 451.047 152.847C451.324 152.669 451.637 152.58 451.988 152.58C452.258 152.58 452.477 152.625 452.644 152.716C452.81 152.805 452.94 152.909 453.033 153.028C453.128 153.148 453.201 153.253 453.252 153.344H453.314V152.636H454.147V157.097C454.147 157.472 454.06 157.779 453.885 158.02C453.711 158.26 453.475 158.438 453.178 158.554C452.882 158.67 452.549 158.727 452.178 158.727ZM452.169 156.23C452.414 156.23 452.62 156.173 452.789 156.06C452.959 155.944 453.088 155.779 453.175 155.565C453.264 155.349 453.309 155.091 453.309 154.79C453.309 154.496 453.265 154.238 453.178 154.014C453.091 153.791 452.963 153.616 452.794 153.491C452.626 153.365 452.417 153.301 452.169 153.301C451.914 153.301 451.701 153.367 451.53 153.5C451.36 153.631 451.231 153.809 451.144 154.034C451.059 154.259 451.016 154.511 451.016 154.79C451.016 155.076 451.06 155.327 451.147 155.543C451.234 155.759 451.363 155.927 451.533 156.048C451.705 156.17 451.917 156.23 452.169 156.23ZM455.286 157V152.636H456.107V153.33H456.152C456.232 153.095 456.372 152.91 456.573 152.776C456.775 152.639 457.005 152.571 457.26 152.571C457.313 152.571 457.376 152.573 457.448 152.577C457.522 152.58 457.579 152.585 457.621 152.591V153.403C457.587 153.394 457.526 153.384 457.439 153.372C457.352 153.359 457.265 153.352 457.178 153.352C456.977 153.352 456.798 153.395 456.641 153.48C456.486 153.563 456.363 153.68 456.272 153.83C456.181 153.977 456.135 154.146 456.135 154.335V157H455.286ZM459.587 157.097C459.31 157.097 459.06 157.045 458.837 156.943C458.614 156.839 458.436 156.688 458.306 156.491C458.177 156.295 458.113 156.053 458.113 155.767C458.113 155.521 458.16 155.318 458.255 155.159C458.349 155 458.477 154.874 458.638 154.781C458.799 154.688 458.979 154.618 459.178 154.571C459.377 154.524 459.579 154.488 459.786 154.463C460.047 154.433 460.259 154.408 460.422 154.389C460.585 154.368 460.703 154.335 460.777 154.29C460.851 154.244 460.888 154.17 460.888 154.068V154.048C460.888 153.8 460.818 153.608 460.678 153.472C460.54 153.335 460.333 153.267 460.059 153.267C459.773 153.267 459.547 153.33 459.382 153.457C459.22 153.582 459.107 153.722 459.044 153.875L458.246 153.693C458.341 153.428 458.479 153.214 458.661 153.051C458.845 152.886 459.056 152.767 459.294 152.693C459.533 152.617 459.784 152.58 460.047 152.58C460.221 152.58 460.406 152.6 460.601 152.642C460.798 152.682 460.982 152.756 461.152 152.864C461.325 152.972 461.466 153.126 461.576 153.327C461.685 153.526 461.74 153.784 461.74 154.102V157H460.911V156.403H460.877C460.822 156.513 460.739 156.621 460.63 156.727C460.52 156.833 460.379 156.921 460.206 156.991C460.034 157.062 459.828 157.097 459.587 157.097ZM459.772 156.415C460.007 156.415 460.207 156.368 460.374 156.276C460.542 156.183 460.67 156.062 460.757 155.912C460.846 155.76 460.891 155.598 460.891 155.426V154.864C460.861 154.894 460.802 154.922 460.715 154.949C460.63 154.973 460.532 154.995 460.422 155.014C460.312 155.031 460.205 155.047 460.101 155.062C459.997 155.076 459.91 155.087 459.84 155.097C459.675 155.117 459.525 155.152 459.388 155.202C459.254 155.251 459.146 155.322 459.064 155.415C458.985 155.506 458.945 155.627 458.945 155.778C458.945 155.989 459.023 156.148 459.178 156.256C459.333 156.362 459.531 156.415 459.772 156.415ZM462.872 158.636V152.636H463.701V153.344H463.772C463.822 153.253 463.893 153.148 463.985 153.028C464.078 152.909 464.207 152.805 464.372 152.716C464.537 152.625 464.754 152.58 465.025 152.58C465.377 152.58 465.692 152.669 465.968 152.847C466.245 153.025 466.462 153.281 466.619 153.616C466.778 153.952 466.858 154.355 466.858 154.827C466.858 155.298 466.779 155.703 466.622 156.04C466.465 156.375 466.249 156.634 465.974 156.815C465.699 156.995 465.386 157.085 465.034 157.085C464.769 157.085 464.552 157.041 464.383 156.952C464.217 156.863 464.086 156.759 463.991 156.639C463.896 156.52 463.824 156.414 463.772 156.321H463.721V158.636H462.872ZM463.704 154.818C463.704 155.125 463.749 155.394 463.838 155.625C463.927 155.856 464.056 156.037 464.224 156.168C464.393 156.296 464.599 156.361 464.843 156.361C465.097 156.361 465.309 156.294 465.48 156.159C465.65 156.023 465.779 155.838 465.866 155.605C465.955 155.372 466 155.11 466 154.818C466 154.53 465.956 154.272 465.869 154.043C465.784 153.813 465.655 153.633 465.483 153.5C465.312 153.367 465.099 153.301 464.843 153.301C464.597 153.301 464.389 153.365 464.218 153.491C464.05 153.618 463.922 153.795 463.835 154.023C463.748 154.25 463.704 154.515 463.704 154.818ZM468.659 154.409V157H467.809V151.182H468.647V153.347H468.701C468.804 153.112 468.96 152.925 469.17 152.787C469.38 152.649 469.655 152.58 469.994 152.58C470.293 152.58 470.555 152.641 470.778 152.764C471.003 152.887 471.178 153.071 471.301 153.315C471.426 153.558 471.488 153.861 471.488 154.224V157H470.639V154.327C470.639 154.007 470.556 153.759 470.392 153.582C470.227 153.404 469.998 153.315 469.704 153.315C469.503 153.315 469.324 153.358 469.164 153.443C469.007 153.528 468.883 153.653 468.792 153.818C468.703 153.981 468.659 154.178 468.659 154.409ZM472.622 157V152.636H473.471V157H472.622ZM473.051 151.963C472.903 151.963 472.776 151.914 472.67 151.815C472.566 151.715 472.514 151.596 472.514 151.457C472.514 151.317 472.566 151.198 472.67 151.099C472.776 150.999 472.903 150.949 473.051 150.949C473.199 150.949 473.324 150.999 473.429 151.099C473.535 151.198 473.588 151.317 473.588 151.457C473.588 151.596 473.535 151.715 473.429 151.815C473.324 151.914 473.199 151.963 473.051 151.963ZM476.452 157.088C476.03 157.088 475.666 156.992 475.361 156.801C475.058 156.608 474.825 156.342 474.662 156.003C474.499 155.664 474.418 155.276 474.418 154.838C474.418 154.395 474.501 154.004 474.668 153.665C474.835 153.324 475.069 153.058 475.373 152.866C475.676 152.675 476.033 152.58 476.444 152.58C476.775 152.58 477.07 152.641 477.33 152.764C477.589 152.885 477.799 153.056 477.958 153.276C478.119 153.495 478.214 153.752 478.245 154.045H477.418C477.373 153.841 477.268 153.665 477.105 153.517C476.944 153.369 476.729 153.295 476.458 153.295C476.221 153.295 476.014 153.358 475.836 153.483C475.659 153.606 475.522 153.782 475.424 154.011C475.325 154.239 475.276 154.508 475.276 154.818C475.276 155.136 475.324 155.411 475.421 155.642C475.517 155.873 475.654 156.052 475.83 156.179C476.008 156.306 476.217 156.369 476.458 156.369C476.619 156.369 476.765 156.34 476.895 156.281C477.028 156.221 477.139 156.134 477.228 156.023C477.319 155.911 477.382 155.777 477.418 155.619H478.245C478.214 155.902 478.123 156.153 477.969 156.375C477.816 156.597 477.61 156.771 477.353 156.898C477.097 157.025 476.797 157.088 476.452 157.088ZM438.225 165.088C437.803 165.088 437.44 164.992 437.135 164.801C436.832 164.608 436.599 164.342 436.436 164.003C436.273 163.664 436.191 163.276 436.191 162.838C436.191 162.395 436.275 162.004 436.441 161.665C436.608 161.324 436.843 161.058 437.146 160.866C437.449 160.675 437.806 160.58 438.217 160.58C438.548 160.58 438.844 160.641 439.103 160.764C439.363 160.885 439.572 161.056 439.731 161.276C439.892 161.495 439.988 161.752 440.018 162.045H439.191C439.146 161.841 439.042 161.665 438.879 161.517C438.718 161.369 438.502 161.295 438.231 161.295C437.994 161.295 437.787 161.358 437.609 161.483C437.433 161.606 437.296 161.782 437.197 162.011C437.099 162.239 437.049 162.508 437.049 162.818C437.049 163.136 437.098 163.411 437.194 163.642C437.291 163.873 437.427 164.052 437.603 164.179C437.781 164.306 437.991 164.369 438.231 164.369C438.392 164.369 438.538 164.34 438.669 164.281C438.801 164.221 438.912 164.134 439.001 164.023C439.092 163.911 439.155 163.777 439.191 163.619H440.018C439.988 163.902 439.896 164.153 439.743 164.375C439.589 164.597 439.384 164.771 439.126 164.898C438.87 165.025 438.57 165.088 438.225 165.088ZM441.776 159.182V165H440.926V159.182H441.776ZM444.189 165.097C443.912 165.097 443.662 165.045 443.439 164.943C443.215 164.839 443.038 164.688 442.907 164.491C442.779 164.295 442.714 164.053 442.714 163.767C442.714 163.521 442.761 163.318 442.856 163.159C442.951 163 443.079 162.874 443.24 162.781C443.401 162.688 443.581 162.618 443.779 162.571C443.978 162.524 444.181 162.488 444.387 162.463C444.649 162.433 444.861 162.408 445.024 162.389C445.187 162.368 445.305 162.335 445.379 162.29C445.453 162.244 445.49 162.17 445.49 162.068V162.048C445.49 161.8 445.42 161.608 445.279 161.472C445.141 161.335 444.935 161.267 444.66 161.267C444.374 161.267 444.149 161.33 443.984 161.457C443.821 161.582 443.708 161.722 443.646 161.875L442.848 161.693C442.942 161.428 443.081 161.214 443.262 161.051C443.446 160.886 443.657 160.767 443.896 160.693C444.135 160.617 444.386 160.58 444.649 160.58C444.823 160.58 445.008 160.6 445.203 160.642C445.4 160.682 445.583 160.756 445.754 160.864C445.926 160.972 446.067 161.126 446.177 161.327C446.287 161.526 446.342 161.784 446.342 162.102V165H445.512V164.403H445.478C445.423 164.513 445.341 164.621 445.231 164.727C445.121 164.833 444.98 164.921 444.808 164.991C444.636 165.062 444.429 165.097 444.189 165.097ZM444.373 164.415C444.608 164.415 444.809 164.368 444.975 164.276C445.144 164.183 445.272 164.062 445.359 163.912C445.448 163.76 445.493 163.598 445.493 163.426V162.864C445.462 162.894 445.404 162.922 445.316 162.949C445.231 162.973 445.134 162.995 445.024 163.014C444.914 163.031 444.807 163.047 444.703 163.062C444.599 163.076 444.511 163.087 444.441 163.097C444.277 163.117 444.126 163.152 443.99 163.202C443.855 163.251 443.747 163.322 443.666 163.415C443.586 163.506 443.547 163.627 443.547 163.778C443.547 163.989 443.624 164.148 443.779 164.256C443.935 164.362 444.133 164.415 444.373 164.415ZM450.743 161.702L449.973 161.838C449.941 161.74 449.89 161.646 449.82 161.557C449.752 161.468 449.659 161.395 449.542 161.338C449.424 161.281 449.277 161.253 449.101 161.253C448.861 161.253 448.66 161.307 448.499 161.415C448.338 161.521 448.257 161.658 448.257 161.827C448.257 161.973 448.311 162.09 448.419 162.179C448.527 162.268 448.702 162.341 448.942 162.398L449.635 162.557C450.037 162.65 450.336 162.793 450.533 162.986C450.73 163.179 450.828 163.43 450.828 163.739C450.828 164 450.753 164.233 450.601 164.438C450.452 164.64 450.242 164.799 449.973 164.915C449.706 165.03 449.397 165.088 449.044 165.088C448.556 165.088 448.157 164.984 447.848 164.776C447.54 164.565 447.35 164.267 447.28 163.881L448.101 163.756C448.152 163.97 448.257 164.132 448.417 164.241C448.576 164.349 448.783 164.403 449.039 164.403C449.317 164.403 449.54 164.346 449.706 164.23C449.873 164.113 449.956 163.97 449.956 163.801C449.956 163.665 449.905 163.55 449.803 163.457C449.703 163.365 449.548 163.295 449.34 163.247L448.601 163.085C448.194 162.992 447.893 162.845 447.698 162.642C447.505 162.439 447.408 162.183 447.408 161.872C447.408 161.615 447.48 161.389 447.624 161.196C447.768 161.003 447.967 160.852 448.221 160.744C448.474 160.634 448.765 160.58 449.093 160.58C449.564 160.58 449.935 160.682 450.206 160.886C450.477 161.089 450.656 161.361 450.743 161.702ZM455.032 161.702L454.262 161.838C454.23 161.74 454.179 161.646 454.109 161.557C454.041 161.468 453.948 161.395 453.831 161.338C453.713 161.281 453.566 161.253 453.39 161.253C453.15 161.253 452.949 161.307 452.788 161.415C452.627 161.521 452.547 161.658 452.547 161.827C452.547 161.973 452.6 162.09 452.708 162.179C452.816 162.268 452.991 162.341 453.231 162.398L453.924 162.557C454.326 162.65 454.625 162.793 454.822 162.986C455.019 163.179 455.118 163.43 455.118 163.739C455.118 164 455.042 164.233 454.89 164.438C454.741 164.64 454.531 164.799 454.262 164.915C453.995 165.03 453.686 165.088 453.333 165.088C452.845 165.088 452.446 164.984 452.137 164.776C451.829 164.565 451.639 164.267 451.569 163.881L452.39 163.756C452.441 163.97 452.547 164.132 452.706 164.241C452.865 164.349 453.072 164.403 453.328 164.403C453.606 164.403 453.829 164.346 453.995 164.23C454.162 164.113 454.245 163.97 454.245 163.801C454.245 163.665 454.194 163.55 454.092 163.457C453.992 163.365 453.837 163.295 453.629 163.247L452.89 163.085C452.483 162.992 452.182 162.845 451.987 162.642C451.794 162.439 451.697 162.183 451.697 161.872C451.697 161.615 451.769 161.389 451.913 161.196C452.057 161.003 452.256 160.852 452.51 160.744C452.763 160.634 453.054 160.58 453.382 160.58C453.853 160.58 454.225 160.682 454.495 160.886C454.766 161.089 454.945 161.361 455.032 161.702ZM456.051 165V160.636H456.901V165H456.051ZM456.48 159.963C456.333 159.963 456.206 159.914 456.1 159.815C455.996 159.715 455.944 159.596 455.944 159.457C455.944 159.317 455.996 159.198 456.1 159.099C456.206 158.999 456.333 158.949 456.48 158.949C456.628 158.949 456.754 158.999 456.858 159.099C456.964 159.198 457.017 159.317 457.017 159.457C457.017 159.596 456.964 159.715 456.858 159.815C456.754 159.914 456.628 159.963 456.48 159.963ZM460.12 160.636V161.318H457.654V160.636H460.12ZM458.331 165V160.131C458.331 159.858 458.39 159.632 458.51 159.452C458.629 159.27 458.787 159.134 458.984 159.045C459.181 158.955 459.395 158.909 459.626 158.909C459.797 158.909 459.942 158.923 460.064 158.952C460.185 158.978 460.275 159.003 460.333 159.026L460.135 159.713C460.095 159.702 460.044 159.688 459.981 159.673C459.919 159.656 459.843 159.648 459.754 159.648C459.547 159.648 459.4 159.699 459.311 159.801C459.224 159.903 459.18 160.051 459.18 160.244V165H458.331ZM460.997 165V160.636H461.846V165H460.997ZM461.426 159.963C461.278 159.963 461.151 159.914 461.045 159.815C460.941 159.715 460.889 159.596 460.889 159.457C460.889 159.317 460.941 159.198 461.045 159.099C461.151 158.999 461.278 158.949 461.426 158.949C461.574 158.949 461.699 158.999 461.804 159.099C461.91 159.198 461.963 159.317 461.963 159.457C461.963 159.596 461.91 159.715 461.804 159.815C461.699 159.914 461.574 159.963 461.426 159.963ZM464.87 165.088C464.44 165.088 464.069 164.996 463.759 164.812C463.45 164.627 463.212 164.366 463.043 164.031C462.876 163.694 462.793 163.299 462.793 162.847C462.793 162.4 462.876 162.006 463.043 161.665C463.212 161.324 463.446 161.058 463.748 160.866C464.051 160.675 464.405 160.58 464.81 160.58C465.056 160.58 465.295 160.62 465.526 160.702C465.757 160.783 465.964 160.911 466.148 161.085C466.332 161.259 466.477 161.486 466.583 161.764C466.689 162.041 466.742 162.377 466.742 162.773V163.074H463.273V162.438H465.909C465.909 162.214 465.864 162.016 465.773 161.844C465.682 161.67 465.554 161.532 465.39 161.432C465.227 161.331 465.035 161.281 464.816 161.281C464.577 161.281 464.369 161.34 464.191 161.457C464.015 161.573 463.878 161.724 463.782 161.912C463.687 162.098 463.64 162.299 463.64 162.517V163.014C463.64 163.306 463.691 163.554 463.793 163.759C463.897 163.963 464.042 164.119 464.228 164.227C464.413 164.333 464.63 164.386 464.878 164.386C465.039 164.386 465.186 164.364 465.319 164.318C465.451 164.271 465.566 164.201 465.662 164.108C465.759 164.015 465.833 163.901 465.884 163.764L466.688 163.909C466.623 164.146 466.508 164.353 466.341 164.531C466.176 164.707 465.969 164.845 465.719 164.943C465.471 165.04 465.188 165.088 464.87 165.088ZM467.684 165V160.636H468.505V161.33H468.551C468.63 161.095 468.77 160.91 468.971 160.776C469.174 160.639 469.403 160.571 469.659 160.571C469.712 160.571 469.774 160.573 469.846 160.577C469.92 160.58 469.978 160.585 470.02 160.591V161.403C469.985 161.394 469.925 161.384 469.838 161.372C469.751 161.359 469.663 161.352 469.576 161.352C469.376 161.352 469.197 161.395 469.039 161.48C468.884 161.563 468.761 161.68 468.67 161.83C468.579 161.977 468.534 162.146 468.534 162.335V165H467.684Z" fill="#0A0A0A"/>
<path d="M99 127H123.074V158H151" stroke="#244784"/>
<path d="M123.074 190H123.574V190.5H123.074V190ZM123.074 158H122.574V157.5H123.074V158ZM151.354 157.646C151.549 157.842 151.549 158.158 151.354 158.354L148.172 161.536C147.976 161.731 147.66 161.731 147.464 161.536C147.269 161.34 147.269 161.024 147.464 160.828L150.293 158L147.464 155.172C147.269 154.976 147.269 154.66 147.464 154.464C147.66 154.269 147.976 154.269 148.172 154.464L151.354 157.646ZM99 190V189.5H123.074V190V190.5H99V190ZM123.074 190H122.574V158H123.074H123.574V190H123.074ZM123.074 158V157.5H151V158V158.5H123.074V158Z" fill="#244784"/>
<rect x="153.5" y="98.5" width="153" height="118" rx="5.5" fill="#E1E6EE" stroke="#244784" stroke-dasharray="3 3"/>
<circle cx="197.5" cy="157.5" r="22" stroke="#4472C4"/>
<circle cx="262.5" cy="157.5" r="22" stroke="#4472C4"/>
<rect x="367.82" y="126.707" width="44" height="44" transform="rotate(45 367.82 126.707)" fill="#749BE0" stroke="#4472C4"/>
<rect x="538.82" y="126.707" width="44" height="44" transform="rotate(45 538.82 126.707)" fill="#749BE0" stroke="#4472C4"/>
<path d="M238.854 158.354C239.049 158.158 239.049 157.842 238.854 157.646L235.672 154.464C235.476 154.269 235.16 154.269 234.964 154.464C234.769 154.66 234.769 154.976 234.964 155.172L237.793 158L234.964 160.828C234.769 161.024 234.769 161.34 234.964 161.536C235.16 161.731 235.476 161.731 235.672 161.536L238.854 158.354ZM222.5 158V158.5H238.5V158V157.5H222.5V158Z" fill="#244784"/>
<path d="M332.354 158.354C332.549 158.158 332.549 157.842 332.354 157.646L329.172 154.464C328.976 154.269 328.66 154.269 328.464 154.464C328.269 154.66 328.269 154.976 328.464 155.172L331.293 158L328.464 160.828C328.269 161.024 328.269 161.34 328.464 161.536C328.66 161.731 328.976 161.731 329.172 161.536L332.354 158.354ZM307 158V158.5H332V158V157.5H307V158Z" fill="#244784"/>
<path d="M419.354 158.354C419.549 158.158 419.549 157.842 419.354 157.646L416.172 154.464C415.976 154.269 415.66 154.269 415.464 154.464C415.269 154.66 415.269 154.976 415.464 155.172L418.293 158L415.464 160.828C415.269 161.024 415.269 161.34 415.464 161.536C415.66 161.731 415.976 161.731 416.172 161.536L419.354 158.354ZM401 158V158.5H419V158V157.5H401V158Z" fill="#244784"/>
<path d="M505.354 158.354C505.549 158.158 505.549 157.842 505.354 157.646L502.172 154.464C501.976 154.269 501.66 154.269 501.464 154.464C501.269 154.66 501.269 154.976 501.464 155.172L504.293 158L501.464 160.828C501.269 161.024 501.269 161.34 501.464 161.536C501.66 161.731 501.976 161.731 502.172 161.536L505.354 158.354ZM487 158V158.5H505V158V157.5H487V158Z" fill="#244784"/>
<path d="M352.837 157V151.909H354.651C355.047 151.909 355.375 151.981 355.636 152.125C355.896 152.27 356.091 152.467 356.22 152.717C356.349 152.966 356.414 153.246 356.414 153.557C356.414 153.87 356.348 154.152 356.217 154.402C356.088 154.651 355.893 154.848 355.631 154.994C355.371 155.138 355.043 155.21 354.649 155.21H353.401V154.559H354.579C354.829 154.559 355.032 154.516 355.188 154.43C355.344 154.342 355.458 154.223 355.531 154.072C355.604 153.921 355.641 153.749 355.641 153.557C355.641 153.365 355.604 153.194 355.531 153.045C355.458 152.896 355.343 152.779 355.186 152.695C355.03 152.61 354.824 152.568 354.569 152.568H353.605V157H352.837ZM358.852 157.077C358.476 157.077 358.152 156.997 357.88 156.836C357.61 156.674 357.401 156.446 357.254 156.152C357.108 155.857 357.035 155.512 357.035 155.116C357.035 154.725 357.108 154.38 357.254 154.082C357.401 153.783 357.607 153.551 357.87 153.383C358.136 153.216 358.445 153.132 358.8 153.132C359.016 153.132 359.224 153.168 359.426 153.239C359.629 153.31 359.81 153.422 359.971 153.575C360.132 153.727 360.258 153.925 360.351 154.169C360.444 154.411 360.49 154.705 360.49 155.051V155.315H357.455V154.758H359.762C359.762 154.562 359.722 154.389 359.643 154.238C359.563 154.086 359.451 153.966 359.307 153.878C359.165 153.79 358.997 153.746 358.805 153.746C358.596 153.746 358.414 153.797 358.258 153.9C358.104 154.001 357.985 154.134 357.9 154.298C357.817 154.46 357.776 154.637 357.776 154.827V155.262C357.776 155.518 357.821 155.735 357.91 155.914C358.001 156.093 358.128 156.229 358.29 156.324C358.453 156.417 358.643 156.463 358.86 156.463C359.001 156.463 359.129 156.443 359.245 156.403C359.361 156.362 359.461 156.301 359.546 156.219C359.63 156.138 359.695 156.038 359.74 155.919L360.443 156.045C360.387 156.253 360.286 156.434 360.14 156.59C359.996 156.744 359.814 156.864 359.596 156.95C359.378 157.035 359.131 157.077 358.852 157.077ZM361.315 157V153.182H362.033V153.788H362.073C362.143 153.583 362.265 153.421 362.441 153.304C362.618 153.184 362.819 153.125 363.043 153.125C363.089 153.125 363.144 153.126 363.207 153.13C363.271 153.133 363.322 153.137 363.358 153.142V153.853C363.329 153.845 363.276 153.836 363.199 153.826C363.123 153.814 363.047 153.808 362.971 153.808C362.795 153.808 362.638 153.846 362.501 153.92C362.365 153.993 362.257 154.095 362.178 154.226C362.098 154.355 362.058 154.503 362.058 154.668V157H361.315ZM366.026 154.527V155.17H363.769V154.527H366.026ZM368.625 157.077C368.255 157.077 367.937 156.993 367.67 156.826C367.405 156.657 367.201 156.424 367.059 156.127C366.916 155.831 366.845 155.491 366.845 155.108C366.845 154.721 366.918 154.378 367.063 154.082C367.209 153.783 367.415 153.551 367.68 153.383C367.945 153.216 368.257 153.132 368.617 153.132C368.907 153.132 369.166 153.186 369.393 153.294C369.62 153.4 369.803 153.549 369.942 153.741C370.083 153.933 370.167 154.158 370.193 154.415H369.47C369.43 154.236 369.339 154.082 369.196 153.952C369.055 153.823 368.867 153.759 368.63 153.759C368.422 153.759 368.241 153.813 368.085 153.923C367.931 154.03 367.811 154.184 367.725 154.385C367.639 154.584 367.595 154.819 367.595 155.091C367.595 155.369 367.638 155.61 367.722 155.812C367.807 156.014 367.926 156.171 368.08 156.282C368.236 156.393 368.419 156.448 368.63 156.448C368.77 156.448 368.898 156.422 369.012 156.371C369.128 156.318 369.225 156.243 369.303 156.145C369.383 156.047 369.438 155.929 369.47 155.792H370.193C370.167 156.039 370.086 156.259 369.952 156.453C369.818 156.647 369.638 156.799 369.413 156.911C369.189 157.022 368.926 157.077 368.625 157.077ZM371.731 151.909V157H370.988V151.909H371.731ZM373.842 157.085C373.6 157.085 373.382 157.04 373.186 156.95C372.99 156.859 372.835 156.727 372.721 156.555C372.608 156.383 372.552 156.171 372.552 155.921C372.552 155.706 372.594 155.528 372.676 155.389C372.759 155.25 372.871 155.14 373.012 155.059C373.153 154.977 373.31 154.916 373.484 154.875C373.658 154.833 373.836 154.802 374.016 154.78C374.245 154.754 374.431 154.732 374.573 154.716C374.716 154.697 374.819 154.668 374.884 154.629C374.948 154.589 374.981 154.524 374.981 154.435V154.417C374.981 154.2 374.919 154.032 374.797 153.913C374.676 153.793 374.495 153.734 374.255 153.734C374.005 153.734 373.807 153.789 373.663 153.9C373.521 154.01 373.422 154.131 373.367 154.266L372.669 154.107C372.752 153.875 372.873 153.687 373.032 153.545C373.193 153.401 373.377 153.296 373.586 153.232C373.795 153.165 374.015 153.132 374.245 153.132C374.397 153.132 374.559 153.15 374.73 153.187C374.902 153.222 375.063 153.286 375.212 153.381C375.363 153.475 375.486 153.61 375.582 153.786C375.678 153.96 375.726 154.186 375.726 154.464V157H375.001V156.478H374.971C374.923 156.574 374.851 156.669 374.755 156.761C374.658 156.854 374.535 156.931 374.384 156.993C374.233 157.054 374.053 157.085 373.842 157.085ZM374.004 156.488C374.209 156.488 374.385 156.447 374.531 156.366C374.678 156.285 374.79 156.179 374.866 156.048C374.944 155.915 374.983 155.774 374.983 155.623V155.131C374.957 155.157 374.905 155.182 374.829 155.205C374.755 155.227 374.669 155.246 374.573 155.262C374.477 155.277 374.383 155.291 374.292 155.305C374.201 155.316 374.125 155.326 374.063 155.335C373.919 155.353 373.788 155.383 373.668 155.426C373.551 155.47 373.456 155.532 373.385 155.613C373.315 155.692 373.28 155.799 373.28 155.931C373.28 156.115 373.348 156.254 373.484 156.349C373.62 156.442 373.793 156.488 374.004 156.488ZM379.578 154.114L378.904 154.233C378.876 154.147 378.831 154.065 378.77 153.987C378.71 153.909 378.629 153.846 378.526 153.796C378.423 153.746 378.295 153.721 378.141 153.721C377.93 153.721 377.755 153.768 377.614 153.863C377.473 153.956 377.403 154.076 377.403 154.223C377.403 154.351 377.45 154.454 377.544 154.532C377.639 154.609 377.791 154.673 378.002 154.723L378.608 154.862C378.959 154.943 379.221 155.069 379.394 155.238C379.566 155.407 379.652 155.626 379.652 155.896C379.652 156.125 379.586 156.329 379.453 156.508C379.322 156.685 379.139 156.824 378.904 156.925C378.67 157.027 378.399 157.077 378.091 157.077C377.664 157.077 377.315 156.986 377.045 156.804C376.774 156.62 376.609 156.359 376.547 156.021L377.266 155.911C377.311 156.098 377.403 156.24 377.542 156.336C377.681 156.431 377.862 156.478 378.086 156.478C378.33 156.478 378.524 156.427 378.67 156.326C378.816 156.224 378.889 156.098 378.889 155.951C378.889 155.832 378.844 155.731 378.755 155.65C378.667 155.569 378.532 155.508 378.35 155.466L377.703 155.325C377.347 155.243 377.084 155.114 376.913 154.937C376.744 154.759 376.659 154.535 376.659 154.263C376.659 154.038 376.722 153.841 376.848 153.672C376.974 153.502 377.148 153.371 377.37 153.276C377.592 153.18 377.847 153.132 378.133 153.132C378.546 153.132 378.871 153.222 379.108 153.401C379.345 153.578 379.501 153.816 379.578 154.114ZM383.331 154.114L382.657 154.233C382.629 154.147 382.584 154.065 382.523 153.987C382.463 153.909 382.382 153.846 382.279 153.796C382.176 153.746 382.048 153.721 381.894 153.721C381.683 153.721 381.508 153.768 381.367 153.863C381.226 153.956 381.155 154.076 381.155 154.223C381.155 154.351 381.203 154.454 381.297 154.532C381.392 154.609 381.544 154.673 381.755 154.723L382.361 154.862C382.712 154.943 382.974 155.069 383.147 155.238C383.319 155.407 383.405 155.626 383.405 155.896C383.405 156.125 383.339 156.329 383.206 156.508C383.075 156.685 382.892 156.824 382.657 156.925C382.423 157.027 382.152 157.077 381.844 157.077C381.416 157.077 381.068 156.986 380.797 156.804C380.527 156.62 380.362 156.359 380.3 156.021L381.019 155.911C381.063 156.098 381.155 156.24 381.295 156.336C381.434 156.431 381.615 156.478 381.839 156.478C382.083 156.478 382.277 156.427 382.423 156.326C382.569 156.224 382.642 156.098 382.642 155.951C382.642 155.832 382.597 155.731 382.508 155.65C382.42 155.569 382.285 155.508 382.103 155.466L381.456 155.325C381.1 155.243 380.836 155.114 380.666 154.937C380.497 154.759 380.412 154.535 380.412 154.263C380.412 154.038 380.475 153.841 380.601 153.672C380.727 153.502 380.901 153.371 381.123 153.276C381.345 153.18 381.6 153.132 381.886 153.132C382.299 153.132 382.624 153.222 382.861 153.401C383.098 153.578 383.254 153.816 383.331 154.114ZM356.451 164V160.182H357.195V164H356.451ZM356.827 159.593C356.697 159.593 356.586 159.55 356.494 159.463C356.402 159.376 356.357 159.271 356.357 159.15C356.357 159.028 356.402 158.923 356.494 158.837C356.586 158.749 356.697 158.705 356.827 158.705C356.956 158.705 357.066 158.749 357.157 158.837C357.25 158.923 357.296 159.028 357.296 159.15C357.296 159.271 357.25 159.376 357.157 159.463C357.066 159.55 356.956 159.593 356.827 159.593ZM358.194 164V160.182H358.908V160.803H358.955C359.035 160.593 359.165 160.429 359.345 160.311C359.526 160.192 359.742 160.132 359.994 160.132C360.249 160.132 360.463 160.192 360.636 160.311C360.81 160.43 360.938 160.594 361.021 160.803H361.061C361.152 160.599 361.297 160.437 361.496 160.316C361.694 160.193 361.931 160.132 362.207 160.132C362.553 160.132 362.835 160.241 363.054 160.458C363.275 160.675 363.385 161.002 363.385 161.44V164H362.642V161.509C362.642 161.251 362.571 161.063 362.43 160.947C362.289 160.831 362.121 160.773 361.926 160.773C361.684 160.773 361.496 160.848 361.361 160.997C361.227 161.145 361.16 161.334 361.16 161.566V164H360.419V161.462C360.419 161.255 360.355 161.088 360.225 160.962C360.096 160.836 359.928 160.773 359.721 160.773C359.58 160.773 359.45 160.811 359.33 160.885C359.213 160.958 359.118 161.06 359.045 161.191C358.973 161.322 358.938 161.474 358.938 161.646V164H358.194ZM365.492 164.085C365.25 164.085 365.031 164.04 364.836 163.95C364.64 163.859 364.485 163.727 364.371 163.555C364.258 163.383 364.202 163.171 364.202 162.921C364.202 162.706 364.243 162.528 364.326 162.389C364.409 162.25 364.521 162.14 364.662 162.059C364.803 161.977 364.96 161.916 365.134 161.875C365.308 161.833 365.486 161.802 365.666 161.78C365.895 161.754 366.08 161.732 366.223 161.716C366.365 161.697 366.469 161.668 366.534 161.629C366.598 161.589 366.631 161.524 366.631 161.435V161.417C366.631 161.2 366.569 161.032 366.447 160.913C366.326 160.793 366.145 160.734 365.905 160.734C365.655 160.734 365.457 160.789 365.313 160.9C365.171 161.01 365.072 161.131 365.017 161.266L364.319 161.107C364.402 160.875 364.523 160.687 364.682 160.545C364.843 160.401 365.027 160.296 365.236 160.232C365.445 160.165 365.664 160.132 365.895 160.132C366.047 160.132 366.209 160.15 366.38 160.187C366.552 160.222 366.713 160.286 366.862 160.381C367.013 160.475 367.136 160.61 367.232 160.786C367.328 160.96 367.376 161.186 367.376 161.464V164H366.651V163.478H366.621C366.573 163.574 366.501 163.669 366.404 163.761C366.308 163.854 366.185 163.931 366.034 163.993C365.883 164.054 365.703 164.085 365.492 164.085ZM365.654 163.488C365.859 163.488 366.035 163.447 366.181 163.366C366.328 163.285 366.44 163.179 366.516 163.048C366.594 162.915 366.633 162.774 366.633 162.623V162.131C366.607 162.157 366.555 162.182 366.479 162.205C366.404 162.227 366.319 162.246 366.223 162.262C366.127 162.277 366.033 162.291 365.942 162.305C365.851 162.316 365.775 162.326 365.713 162.335C365.569 162.353 365.437 162.383 365.318 162.426C365.2 162.47 365.106 162.532 365.035 162.613C364.965 162.692 364.93 162.799 364.93 162.931C364.93 163.115 364.998 163.254 365.134 163.349C365.27 163.442 365.443 163.488 365.654 163.488ZM369.967 165.511C369.664 165.511 369.403 165.472 369.184 165.392C368.967 165.313 368.79 165.207 368.652 165.076C368.515 164.945 368.412 164.802 368.344 164.646L368.983 164.383C369.028 164.456 369.087 164.533 369.162 164.614C369.238 164.697 369.341 164.767 369.47 164.825C369.601 164.883 369.769 164.912 369.975 164.912C370.256 164.912 370.489 164.844 370.673 164.706C370.857 164.57 370.949 164.353 370.949 164.055V163.304H370.902C370.857 163.385 370.792 163.475 370.708 163.575C370.625 163.674 370.511 163.761 370.365 163.833C370.219 163.906 370.029 163.943 369.796 163.943C369.494 163.943 369.222 163.872 368.98 163.732C368.74 163.589 368.549 163.379 368.409 163.103C368.269 162.824 368.2 162.482 368.2 162.076C368.2 161.67 368.269 161.322 368.406 161.032C368.545 160.742 368.736 160.52 368.978 160.366C369.22 160.21 369.494 160.132 369.801 160.132C370.038 160.132 370.229 160.172 370.375 160.251C370.521 160.329 370.634 160.42 370.715 160.525C370.798 160.629 370.862 160.721 370.907 160.801H370.962V160.182H371.69V164.085C371.69 164.413 371.614 164.682 371.461 164.892C371.309 165.103 371.102 165.259 370.842 165.36C370.584 165.461 370.292 165.511 369.967 165.511ZM369.96 163.326C370.174 163.326 370.354 163.277 370.502 163.177C370.651 163.076 370.763 162.932 370.84 162.745C370.918 162.556 370.957 162.33 370.957 162.066C370.957 161.809 370.918 161.583 370.842 161.387C370.766 161.192 370.654 161.039 370.507 160.93C370.359 160.819 370.177 160.763 369.96 160.763C369.736 160.763 369.55 160.821 369.4 160.938C369.251 161.052 369.139 161.208 369.062 161.405C368.988 161.602 368.951 161.822 368.951 162.066C368.951 162.316 368.989 162.536 369.065 162.725C369.141 162.914 369.254 163.061 369.403 163.167C369.554 163.273 369.739 163.326 369.96 163.326ZM374.332 164.077C373.956 164.077 373.632 163.997 373.36 163.836C373.09 163.674 372.881 163.446 372.734 163.152C372.588 162.857 372.515 162.512 372.515 162.116C372.515 161.725 372.588 161.38 372.734 161.082C372.881 160.783 373.087 160.551 373.35 160.383C373.616 160.216 373.925 160.132 374.28 160.132C374.495 160.132 374.704 160.168 374.906 160.239C375.109 160.31 375.29 160.422 375.451 160.575C375.612 160.727 375.738 160.925 375.831 161.169C375.924 161.411 375.97 161.705 375.97 162.051V162.315H372.935V161.758H375.242C375.242 161.562 375.202 161.389 375.123 161.238C375.043 161.086 374.931 160.966 374.787 160.878C374.645 160.79 374.477 160.746 374.285 160.746C374.076 160.746 373.894 160.797 373.738 160.9C373.584 161.001 373.465 161.134 373.38 161.298C373.297 161.46 373.256 161.637 373.256 161.827V162.262C373.256 162.518 373.301 162.735 373.39 162.914C373.481 163.093 373.608 163.229 373.77 163.324C373.933 163.417 374.123 163.463 374.34 163.463C374.481 163.463 374.609 163.443 374.725 163.403C374.841 163.362 374.941 163.301 375.026 163.219C375.11 163.138 375.175 163.038 375.22 162.919L375.923 163.045C375.867 163.253 375.766 163.434 375.62 163.59C375.476 163.744 375.294 163.864 375.076 163.95C374.858 164.035 374.611 164.077 374.332 164.077ZM379.656 161.114L378.983 161.233C378.954 161.147 378.91 161.065 378.848 160.987C378.789 160.909 378.707 160.846 378.605 160.796C378.502 160.746 378.374 160.721 378.219 160.721C378.009 160.721 377.833 160.768 377.692 160.863C377.552 160.956 377.481 161.076 377.481 161.223C377.481 161.351 377.528 161.454 377.623 161.532C377.717 161.609 377.87 161.673 378.08 161.723L378.687 161.862C379.038 161.943 379.3 162.069 379.472 162.238C379.645 162.407 379.731 162.626 379.731 162.896C379.731 163.125 379.664 163.329 379.532 163.508C379.401 163.685 379.218 163.824 378.983 163.925C378.749 164.027 378.478 164.077 378.17 164.077C377.742 164.077 377.393 163.986 377.123 163.804C376.853 163.62 376.687 163.359 376.626 163.021L377.344 162.911C377.389 163.098 377.481 163.24 377.62 163.336C377.76 163.431 377.941 163.478 378.165 163.478C378.408 163.478 378.603 163.427 378.749 163.326C378.895 163.224 378.968 163.098 378.968 162.951C378.968 162.832 378.923 162.731 378.833 162.65C378.746 162.569 378.611 162.508 378.428 162.466L377.782 162.325C377.426 162.243 377.162 162.114 376.991 161.937C376.822 161.759 376.738 161.535 376.738 161.263C376.738 161.038 376.801 160.841 376.927 160.672C377.053 160.502 377.227 160.371 377.449 160.276C377.671 160.18 377.925 160.132 378.212 160.132C378.625 160.132 378.949 160.222 379.186 160.401C379.423 160.578 379.58 160.816 379.656 161.114Z" fill="#0A0A0A"/>
<path d="M528.223 157V151.909H530.038C530.434 151.909 530.762 151.981 531.022 152.125C531.282 152.27 531.477 152.467 531.606 152.717C531.735 152.966 531.8 153.246 531.8 153.557C531.8 153.87 531.734 154.152 531.604 154.402C531.474 154.651 531.279 154.848 531.017 154.994C530.757 155.138 530.429 155.21 530.035 155.21H528.787V154.559H529.965C530.216 154.559 530.419 154.516 530.574 154.43C530.73 154.342 530.845 154.223 530.917 154.072C530.99 153.921 531.027 153.749 531.027 153.557C531.027 153.365 530.99 153.194 530.917 153.045C530.845 152.896 530.729 152.779 530.572 152.695C530.416 152.61 530.211 152.568 529.955 152.568H528.991V157H528.223ZM533.718 157.085C533.476 157.085 533.257 157.04 533.061 156.95C532.866 156.859 532.711 156.727 532.597 156.555C532.484 156.383 532.428 156.171 532.428 155.921C532.428 155.706 532.469 155.528 532.552 155.389C532.635 155.25 532.747 155.14 532.887 155.059C533.028 154.977 533.186 154.916 533.36 154.875C533.534 154.833 533.711 154.802 533.892 154.78C534.12 154.754 534.306 154.732 534.449 154.716C534.591 154.697 534.695 154.668 534.759 154.629C534.824 154.589 534.856 154.524 534.856 154.435V154.417C534.856 154.2 534.795 154.032 534.672 153.913C534.551 153.793 534.371 153.734 534.13 153.734C533.88 153.734 533.683 153.789 533.539 153.9C533.396 154.01 533.298 154.131 533.243 154.266L532.544 154.107C532.627 153.875 532.748 153.687 532.907 153.545C533.068 153.401 533.253 153.296 533.462 153.232C533.67 153.165 533.89 153.132 534.12 153.132C534.273 153.132 534.434 153.15 534.605 153.187C534.778 153.222 534.938 153.286 535.087 153.381C535.238 153.475 535.362 153.61 535.458 153.786C535.554 153.96 535.602 154.186 535.602 154.464V157H534.876V156.478H534.846C534.798 156.574 534.726 156.669 534.63 156.761C534.534 156.854 534.41 156.931 534.26 156.993C534.109 157.054 533.928 157.085 533.718 157.085ZM533.879 156.488C534.085 156.488 534.26 156.447 534.406 156.366C534.554 156.285 534.666 156.179 534.742 156.048C534.82 155.915 534.859 155.774 534.859 155.623V155.131C534.832 155.157 534.781 155.182 534.705 155.205C534.63 155.227 534.545 155.246 534.449 155.262C534.352 155.277 534.259 155.291 534.168 155.305C534.077 155.316 534 155.326 533.939 155.335C533.795 155.353 533.663 155.383 533.544 155.426C533.426 155.47 533.332 155.532 533.26 155.613C533.191 155.692 533.156 155.799 533.156 155.931C533.156 156.115 533.224 156.254 533.36 156.349C533.496 156.442 533.669 156.488 533.879 156.488ZM538.374 153.182V153.778H536.289V153.182H538.374ZM536.848 152.267H537.591V155.879C537.591 156.023 537.613 156.132 537.656 156.205C537.699 156.276 537.754 156.325 537.822 156.351C537.892 156.376 537.967 156.388 538.049 156.388C538.108 156.388 538.16 156.384 538.205 156.376C538.25 156.368 538.285 156.361 538.31 156.356L538.444 156.97C538.401 156.987 538.339 157.003 538.26 157.02C538.18 157.038 538.081 157.048 537.962 157.05C537.766 157.053 537.584 157.018 537.415 156.945C537.246 156.872 537.109 156.76 537.005 156.607C536.9 156.455 536.848 156.263 536.848 156.033V152.267ZM539.196 157V153.182H539.94V157H539.196ZM539.572 152.593C539.443 152.593 539.331 152.55 539.239 152.463C539.148 152.376 539.102 152.271 539.102 152.15C539.102 152.028 539.148 151.923 539.239 151.837C539.331 151.749 539.443 151.705 539.572 151.705C539.701 151.705 539.811 151.749 539.902 151.837C539.995 151.923 540.042 152.028 540.042 152.15C540.042 152.271 539.995 152.376 539.902 152.463C539.811 152.55 539.701 152.593 539.572 152.593ZM542.585 157.077C542.209 157.077 541.885 156.997 541.613 156.836C541.343 156.674 541.134 156.446 540.987 156.152C540.841 155.857 540.768 155.512 540.768 155.116C540.768 154.725 540.841 154.38 540.987 154.082C541.134 153.783 541.34 153.551 541.603 153.383C541.868 153.216 542.178 153.132 542.533 153.132C542.748 153.132 542.957 153.168 543.159 153.239C543.362 153.31 543.543 153.422 543.704 153.575C543.865 153.727 543.991 153.925 544.084 154.169C544.177 154.411 544.223 154.705 544.223 155.051V155.315H541.188V154.758H543.495C543.495 154.562 543.455 154.389 543.376 154.238C543.296 154.086 543.184 153.966 543.04 153.878C542.898 153.79 542.73 153.746 542.538 153.746C542.329 153.746 542.147 153.797 541.991 153.9C541.837 154.001 541.718 154.134 541.633 154.298C541.55 154.46 541.509 154.637 541.509 154.827V155.262C541.509 155.518 541.554 155.735 541.643 155.914C541.734 156.093 541.861 156.229 542.023 156.324C542.186 156.417 542.376 156.463 542.593 156.463C542.734 156.463 542.862 156.443 542.978 156.403C543.094 156.362 543.194 156.301 543.279 156.219C543.363 156.138 543.428 156.038 543.473 155.919L544.176 156.045C544.12 156.253 544.019 156.434 543.873 156.59C543.729 156.744 543.547 156.864 543.328 156.95C543.111 157.035 542.864 157.077 542.585 157.077ZM545.791 154.733V157H545.048V153.182H545.761V153.803H545.809C545.896 153.601 546.034 153.439 546.221 153.316C546.41 153.193 546.648 153.132 546.935 153.132C547.195 153.132 547.423 153.187 547.618 153.296C547.814 153.404 547.965 153.565 548.073 153.778C548.181 153.992 548.235 154.257 548.235 154.571V157H547.492V154.661C547.492 154.384 547.419 154.168 547.275 154.012C547.131 153.855 546.933 153.776 546.681 153.776C546.509 153.776 546.356 153.813 546.221 153.888C546.089 153.962 545.983 154.072 545.906 154.216C545.829 154.358 545.791 154.531 545.791 154.733ZM551.014 153.182V153.778H548.928V153.182H551.014ZM549.488 152.267H550.231V155.879C550.231 156.023 550.252 156.132 550.295 156.205C550.339 156.276 550.394 156.325 550.462 156.351C550.532 156.376 550.607 156.388 550.688 156.388C550.748 156.388 550.8 156.384 550.845 156.376C550.89 156.368 550.924 156.361 550.949 156.356L551.083 156.97C551.04 156.987 550.979 157.003 550.9 157.02C550.82 157.038 550.721 157.048 550.601 157.05C550.406 157.053 550.223 157.018 550.054 156.945C549.885 156.872 549.749 156.76 549.644 156.607C549.54 156.455 549.488 156.263 549.488 156.033V152.267ZM520.907 164V160.182H521.65V164H520.907ZM521.282 159.593C521.153 159.593 521.042 159.55 520.949 159.463C520.858 159.376 520.812 159.271 520.812 159.15C520.812 159.028 520.858 158.923 520.949 158.837C521.042 158.749 521.153 158.705 521.282 158.705C521.411 158.705 521.522 158.749 521.613 158.837C521.706 158.923 521.752 159.028 521.752 159.15C521.752 159.271 521.706 159.376 521.613 159.463C521.522 159.55 521.411 159.593 521.282 159.593ZM523.393 161.733V164H522.65V160.182H523.363V160.803H523.411C523.499 160.601 523.636 160.439 523.823 160.316C524.012 160.193 524.25 160.132 524.537 160.132C524.797 160.132 525.025 160.187 525.22 160.296C525.416 160.404 525.568 160.565 525.675 160.778C525.783 160.992 525.837 161.257 525.837 161.571V164H525.094V161.661C525.094 161.384 525.021 161.168 524.877 161.012C524.733 160.855 524.535 160.776 524.283 160.776C524.111 160.776 523.958 160.813 523.823 160.888C523.691 160.962 523.586 161.072 523.508 161.216C523.431 161.358 523.393 161.531 523.393 161.733ZM528.651 160.182V160.778H526.493V160.182H528.651ZM527.085 164V159.739C527.085 159.501 527.137 159.303 527.241 159.145C527.346 158.986 527.484 158.868 527.656 158.79C527.829 158.71 528.016 158.67 528.218 158.67C528.367 158.67 528.495 158.683 528.601 158.708C528.707 158.731 528.786 158.752 528.837 158.772L528.663 159.374C528.628 159.364 528.584 159.352 528.529 159.339C528.474 159.324 528.408 159.317 528.33 159.317C528.149 159.317 528.02 159.362 527.942 159.451C527.866 159.54 527.828 159.67 527.828 159.839V164H527.085ZM530.876 164.077C530.518 164.077 530.205 163.995 529.938 163.831C529.672 163.667 529.464 163.437 529.317 163.142C529.169 162.847 529.096 162.503 529.096 162.108C529.096 161.712 529.169 161.366 529.317 161.069C529.464 160.773 529.672 160.542 529.938 160.378C530.205 160.214 530.518 160.132 530.876 160.132C531.233 160.132 531.546 160.214 531.813 160.378C532.079 160.542 532.287 160.773 532.434 161.069C532.582 161.366 532.655 161.712 532.655 162.108C532.655 162.503 532.582 162.847 532.434 163.142C532.287 163.437 532.079 163.667 531.813 163.831C531.546 163.995 531.233 164.077 530.876 164.077ZM530.878 163.453C531.11 163.453 531.302 163.392 531.455 163.269C531.607 163.147 531.72 162.983 531.793 162.779C531.867 162.576 531.905 162.351 531.905 162.106C531.905 161.862 531.867 161.638 531.793 161.435C531.72 161.229 531.607 161.064 531.455 160.94C531.302 160.816 531.11 160.754 530.878 160.754C530.644 160.754 530.45 160.816 530.296 160.94C530.144 161.064 530.03 161.229 529.956 161.435C529.883 161.638 529.846 161.862 529.846 162.106C529.846 162.351 529.883 162.576 529.956 162.779C530.03 162.983 530.144 163.147 530.296 163.269C530.45 163.392 530.644 163.453 530.878 163.453ZM533.485 164V160.182H534.203V160.788H534.243C534.313 160.583 534.435 160.421 534.611 160.304C534.788 160.184 534.989 160.125 535.213 160.125C535.259 160.125 535.314 160.126 535.377 160.13C535.441 160.133 535.492 160.137 535.528 160.142V160.853C535.498 160.845 535.445 160.836 535.369 160.826C535.293 160.814 535.217 160.808 535.141 160.808C534.965 160.808 534.808 160.846 534.671 160.92C534.535 160.993 534.427 161.095 534.348 161.226C534.268 161.355 534.228 161.503 534.228 161.668V164H533.485ZM536.172 164V160.182H536.885V160.803H536.932C537.012 160.593 537.142 160.429 537.322 160.311C537.503 160.192 537.719 160.132 537.971 160.132C538.226 160.132 538.44 160.192 538.613 160.311C538.787 160.43 538.915 160.594 538.998 160.803H539.038C539.129 160.599 539.274 160.437 539.473 160.316C539.672 160.193 539.908 160.132 540.184 160.132C540.53 160.132 540.812 160.241 541.031 160.458C541.252 160.675 541.362 161.002 541.362 161.44V164H540.619V161.509C540.619 161.251 540.548 161.063 540.407 160.947C540.266 160.831 540.098 160.773 539.903 160.773C539.661 160.773 539.473 160.848 539.338 160.997C539.204 161.145 539.137 161.334 539.137 161.566V164H538.396V161.462C538.396 161.255 538.332 161.088 538.202 160.962C538.073 160.836 537.905 160.773 537.698 160.773C537.557 160.773 537.427 160.811 537.308 160.885C537.19 160.958 537.095 161.06 537.022 161.191C536.95 161.322 536.915 161.474 536.915 161.646V164H536.172ZM543.469 164.085C543.227 164.085 543.008 164.04 542.813 163.95C542.617 163.859 542.462 163.727 542.348 163.555C542.235 163.383 542.179 163.171 542.179 162.921C542.179 162.706 542.22 162.528 542.303 162.389C542.386 162.25 542.498 162.14 542.639 162.059C542.78 161.977 542.937 161.916 543.111 161.875C543.285 161.833 543.463 161.802 543.643 161.78C543.872 161.754 544.057 161.732 544.2 161.716C544.343 161.697 544.446 161.668 544.511 161.629C544.575 161.589 544.608 161.524 544.608 161.435V161.417C544.608 161.2 544.546 161.032 544.424 160.913C544.303 160.793 544.122 160.734 543.882 160.734C543.632 160.734 543.434 160.789 543.29 160.9C543.148 161.01 543.049 161.131 542.994 161.266L542.296 161.107C542.379 160.875 542.5 160.687 542.659 160.545C542.82 160.401 543.004 160.296 543.213 160.232C543.422 160.165 543.642 160.132 543.872 160.132C544.024 160.132 544.186 160.15 544.357 160.187C544.529 160.222 544.69 160.286 544.839 160.381C544.99 160.475 545.113 160.61 545.209 160.786C545.305 160.96 545.353 161.186 545.353 161.464V164H544.628V163.478H544.598C544.55 163.574 544.478 163.669 544.381 163.761C544.285 163.854 544.162 163.931 544.011 163.993C543.86 164.054 543.68 164.085 543.469 164.085ZM543.631 163.488C543.836 163.488 544.012 163.447 544.158 163.366C544.305 163.285 544.417 163.179 544.493 163.048C544.571 162.915 544.61 162.774 544.61 162.623V162.131C544.584 162.157 544.532 162.182 544.456 162.205C544.381 162.227 544.296 162.246 544.2 162.262C544.104 162.277 544.01 162.291 543.919 162.305C543.828 162.316 543.752 162.326 543.69 162.335C543.546 162.353 543.415 162.383 543.295 162.426C543.178 162.47 543.083 162.532 543.012 162.613C542.942 162.692 542.907 162.799 542.907 162.931C542.907 163.115 542.975 163.254 543.111 163.349C543.247 163.442 543.42 163.488 543.631 163.488ZM548.126 160.182V160.778H546.04V160.182H548.126ZM546.599 159.267H547.343V162.879C547.343 163.023 547.364 163.132 547.407 163.205C547.45 163.276 547.506 163.325 547.574 163.351C547.643 163.376 547.719 163.388 547.8 163.388C547.86 163.388 547.912 163.384 547.957 163.376C548.001 163.368 548.036 163.361 548.061 163.356L548.195 163.97C548.152 163.987 548.091 164.003 548.011 164.02C547.932 164.038 547.832 164.048 547.713 164.05C547.518 164.053 547.335 164.018 547.166 163.945C546.997 163.872 546.86 163.76 546.756 163.607C546.652 163.455 546.599 163.263 546.599 163.033V159.267ZM548.948 164V160.182H549.691V164H548.948ZM549.323 159.593C549.194 159.593 549.083 159.55 548.99 159.463C548.899 159.376 548.853 159.271 548.853 159.15C548.853 159.028 548.899 158.923 548.99 158.837C549.083 158.749 549.194 158.705 549.323 158.705C549.453 158.705 549.563 158.749 549.654 158.837C549.747 158.923 549.793 159.028 549.793 159.15C549.793 159.271 549.747 159.376 549.654 159.463C549.563 159.55 549.453 159.593 549.323 159.593ZM552.299 164.077C551.941 164.077 551.629 163.995 551.362 163.831C551.095 163.667 550.888 163.437 550.741 163.142C550.593 162.847 550.52 162.503 550.52 162.108C550.52 161.712 550.593 161.366 550.741 161.069C550.888 160.773 551.095 160.542 551.362 160.378C551.629 160.214 551.941 160.132 552.299 160.132C552.657 160.132 552.97 160.214 553.237 160.378C553.503 160.542 553.71 160.773 553.858 161.069C554.005 161.366 554.079 161.712 554.079 162.108C554.079 162.503 554.005 162.847 553.858 163.142C553.71 163.437 553.503 163.667 553.237 163.831C552.97 163.995 552.657 164.077 552.299 164.077ZM552.302 163.453C552.534 163.453 552.726 163.392 552.879 163.269C553.031 163.147 553.144 162.983 553.217 162.779C553.291 162.576 553.328 162.351 553.328 162.106C553.328 161.862 553.291 161.638 553.217 161.435C553.144 161.229 553.031 161.064 552.879 160.94C552.726 160.816 552.534 160.754 552.302 160.754C552.068 160.754 551.874 160.816 551.72 160.94C551.568 161.064 551.454 161.229 551.38 161.435C551.307 161.638 551.27 161.862 551.27 162.106C551.27 162.351 551.307 162.576 551.38 162.779C551.454 162.983 551.568 163.147 551.72 163.269C551.874 163.392 552.068 163.453 552.302 163.453ZM555.652 161.733V164H554.909V160.182H555.622V160.803H555.669C555.757 160.601 555.895 160.439 556.082 160.316C556.271 160.193 556.509 160.132 556.796 160.132C557.056 160.132 557.284 160.187 557.479 160.296C557.675 160.404 557.826 160.565 557.934 160.778C558.042 160.992 558.096 161.257 558.096 161.571V164H557.352V161.661C557.352 161.384 557.28 161.168 557.136 161.012C556.992 160.855 556.794 160.776 556.542 160.776C556.37 160.776 556.216 160.813 556.082 160.888C555.95 160.962 555.844 161.072 555.766 161.216C555.69 161.358 555.652 161.531 555.652 161.733Z" fill="#0A0A0A"/>
<path d="M181.611 155.182V161H180.733V155.182H181.611ZM183.67 158.409V161H182.821V156.636H183.636V157.347H183.69C183.791 157.116 183.948 156.93 184.162 156.79C184.378 156.65 184.65 156.58 184.977 156.58C185.275 156.58 185.535 156.642 185.759 156.767C185.982 156.89 186.155 157.074 186.278 157.318C186.402 157.562 186.463 157.865 186.463 158.224V161H185.614V158.327C185.614 158.01 185.531 157.763 185.366 157.585C185.202 157.405 184.975 157.315 184.688 157.315C184.491 157.315 184.315 157.358 184.162 157.443C184.01 157.528 183.89 157.653 183.801 157.818C183.714 157.981 183.67 158.178 183.67 158.409ZM191.179 156.636L189.597 161H188.688L187.102 156.636H188.014L189.119 159.994H189.165L190.267 156.636H191.179ZM193.71 161.088C193.28 161.088 192.909 160.996 192.599 160.812C192.29 160.627 192.051 160.366 191.883 160.031C191.716 159.694 191.633 159.299 191.633 158.847C191.633 158.4 191.716 158.006 191.883 157.665C192.051 157.324 192.286 157.058 192.587 156.866C192.89 156.675 193.245 156.58 193.65 156.58C193.896 156.58 194.135 156.62 194.366 156.702C194.597 156.783 194.804 156.911 194.988 157.085C195.172 157.259 195.317 157.486 195.423 157.764C195.529 158.041 195.582 158.377 195.582 158.773V159.074H192.113V158.438H194.749C194.749 158.214 194.704 158.016 194.613 157.844C194.522 157.67 194.394 157.532 194.229 157.432C194.067 157.331 193.875 157.281 193.656 157.281C193.417 157.281 193.209 157.34 193.031 157.457C192.854 157.573 192.718 157.724 192.621 157.912C192.527 158.098 192.479 158.299 192.479 158.517V159.014C192.479 159.306 192.531 159.554 192.633 159.759C192.737 159.963 192.882 160.119 193.067 160.227C193.253 160.333 193.47 160.386 193.718 160.386C193.879 160.386 194.026 160.364 194.158 160.318C194.291 160.271 194.406 160.201 194.502 160.108C194.599 160.015 194.673 159.901 194.724 159.764L195.528 159.909C195.463 160.146 195.348 160.353 195.181 160.531C195.016 160.707 194.809 160.845 194.559 160.943C194.311 161.04 194.028 161.088 193.71 161.088ZM196.524 161V156.636H197.345V157.33H197.391C197.47 157.095 197.61 156.91 197.811 156.776C198.014 156.639 198.243 156.571 198.499 156.571C198.552 156.571 198.614 156.573 198.686 156.577C198.76 156.58 198.818 156.585 198.859 156.591V157.403C198.825 157.394 198.765 157.384 198.678 157.372C198.59 157.359 198.503 157.352 198.416 157.352C198.215 157.352 198.036 157.395 197.879 157.48C197.724 157.563 197.601 157.68 197.51 157.83C197.419 157.977 197.374 158.146 197.374 158.335V161H196.524ZM202.864 157.702L202.094 157.838C202.062 157.74 202.011 157.646 201.941 157.557C201.873 157.468 201.78 157.395 201.663 157.338C201.545 157.281 201.398 157.253 201.222 157.253C200.982 157.253 200.781 157.307 200.62 157.415C200.459 157.521 200.379 157.658 200.379 157.827C200.379 157.973 200.433 158.09 200.54 158.179C200.648 158.268 200.823 158.341 201.063 158.398L201.756 158.557C202.158 158.65 202.457 158.793 202.654 158.986C202.851 159.179 202.95 159.43 202.95 159.739C202.95 160 202.874 160.233 202.722 160.438C202.573 160.64 202.363 160.799 202.094 160.915C201.827 161.03 201.518 161.088 201.165 161.088C200.677 161.088 200.278 160.984 199.969 160.776C199.661 160.565 199.471 160.267 199.401 159.881L200.222 159.756C200.273 159.97 200.379 160.132 200.538 160.241C200.697 160.349 200.904 160.403 201.16 160.403C201.438 160.403 201.661 160.346 201.827 160.23C201.994 160.113 202.077 159.97 202.077 159.801C202.077 159.665 202.026 159.55 201.924 159.457C201.824 159.365 201.669 159.295 201.461 159.247L200.722 159.085C200.315 158.992 200.014 158.845 199.819 158.642C199.626 158.439 199.529 158.183 199.529 157.872C199.529 157.615 199.601 157.389 199.745 157.196C199.889 157.003 200.088 156.852 200.342 156.744C200.595 156.634 200.886 156.58 201.214 156.58C201.685 156.58 202.057 156.682 202.327 156.886C202.598 157.089 202.777 157.361 202.864 157.702ZM203.884 161V156.636H204.733V161H203.884ZM204.312 155.963C204.165 155.963 204.038 155.914 203.932 155.815C203.828 155.715 203.776 155.596 203.776 155.457C203.776 155.317 203.828 155.198 203.932 155.099C204.038 154.999 204.165 154.949 204.312 154.949C204.46 154.949 204.586 154.999 204.69 155.099C204.796 155.198 204.849 155.317 204.849 155.457C204.849 155.596 204.796 155.715 204.69 155.815C204.586 155.914 204.46 155.963 204.312 155.963ZM207.714 161.088C207.305 161.088 206.948 160.994 206.643 160.807C206.338 160.619 206.101 160.357 205.933 160.02C205.764 159.683 205.68 159.289 205.68 158.838C205.68 158.385 205.764 157.99 205.933 157.651C206.101 157.312 206.338 157.048 206.643 156.861C206.948 156.673 207.305 156.58 207.714 156.58C208.123 156.58 208.48 156.673 208.785 156.861C209.09 157.048 209.326 157.312 209.495 157.651C209.664 157.99 209.748 158.385 209.748 158.838C209.748 159.289 209.664 159.683 209.495 160.02C209.326 160.357 209.09 160.619 208.785 160.807C208.48 160.994 208.123 161.088 207.714 161.088ZM207.717 160.375C207.982 160.375 208.201 160.305 208.376 160.165C208.55 160.025 208.679 159.838 208.762 159.605C208.847 159.372 208.89 159.116 208.89 158.835C208.89 158.557 208.847 158.301 208.762 158.068C208.679 157.833 208.55 157.645 208.376 157.503C208.201 157.361 207.982 157.29 207.717 157.29C207.45 157.29 207.228 157.361 207.052 157.503C206.878 157.645 206.748 157.833 206.663 158.068C206.579 158.301 206.538 158.557 206.538 158.835C206.538 159.116 206.579 159.372 206.663 159.605C206.748 159.838 206.878 160.025 207.052 160.165C207.228 160.305 207.45 160.375 207.717 160.375ZM211.545 158.409V161H210.696V156.636H211.511V157.347H211.565C211.666 157.116 211.823 156.93 212.037 156.79C212.253 156.65 212.525 156.58 212.852 156.58C213.15 156.58 213.41 156.642 213.634 156.767C213.857 156.89 214.03 157.074 214.153 157.318C214.277 157.562 214.338 157.865 214.338 158.224V161H213.489V158.327C213.489 158.01 213.406 157.763 213.241 157.585C213.077 157.405 212.85 157.315 212.562 157.315C212.366 157.315 212.19 157.358 212.037 157.443C211.885 157.528 211.765 157.653 211.676 157.818C211.589 157.981 211.545 158.178 211.545 158.409Z" fill="#0A0A0A"/>
<path d="M247.731 151.909H248.663L250.284 155.866H250.343L251.964 151.909H252.896V157H252.165V153.316H252.118L250.617 156.993H250.01L248.509 153.314H248.462V157H247.731V151.909ZM255.064 157.085C254.822 157.085 254.604 157.04 254.408 156.95C254.213 156.859 254.058 156.727 253.943 156.555C253.831 156.383 253.774 156.171 253.774 155.921C253.774 155.706 253.816 155.528 253.899 155.389C253.981 155.25 254.093 155.14 254.234 155.059C254.375 154.977 254.532 154.916 254.706 154.875C254.88 154.833 255.058 154.802 255.238 154.78C255.467 154.754 255.653 154.732 255.795 154.716C255.938 154.697 256.041 154.668 256.106 154.629C256.171 154.589 256.203 154.524 256.203 154.435V154.417C256.203 154.2 256.142 154.032 256.019 153.913C255.898 153.793 255.717 153.734 255.477 153.734C255.227 153.734 255.03 153.789 254.885 153.9C254.743 154.01 254.644 154.131 254.59 154.266L253.891 154.107C253.974 153.875 254.095 153.687 254.254 153.545C254.415 153.401 254.6 153.296 254.808 153.232C255.017 153.165 255.237 153.132 255.467 153.132C255.62 153.132 255.781 153.15 255.952 153.187C256.124 153.222 256.285 153.286 256.434 153.381C256.585 153.475 256.708 153.61 256.804 153.786C256.901 153.96 256.949 154.186 256.949 154.464V157H256.223V156.478H256.193C256.145 156.574 256.073 156.669 255.977 156.761C255.881 156.854 255.757 156.931 255.606 156.993C255.456 157.054 255.275 157.085 255.064 157.085ZM255.226 156.488C255.431 156.488 255.607 156.447 255.753 156.366C255.9 156.285 256.012 156.179 256.089 156.048C256.166 155.915 256.205 155.774 256.205 155.623V155.131C256.179 155.157 256.128 155.182 256.051 155.205C255.977 155.227 255.891 155.246 255.795 155.262C255.699 155.277 255.605 155.291 255.514 155.305C255.423 155.316 255.347 155.326 255.286 155.335C255.141 155.353 255.01 155.383 254.89 155.426C254.773 155.47 254.678 155.532 254.607 155.613C254.537 155.692 254.503 155.799 254.503 155.931C254.503 156.115 254.571 156.254 254.706 156.349C254.842 156.442 255.016 156.488 255.226 156.488ZM258.525 153.182L259.368 154.668L260.218 153.182H261.031L259.84 155.091L261.041 157H260.228L259.368 155.573L258.51 157H257.695L258.883 155.091L257.71 153.182H258.525ZM261.794 157V153.182H262.537V157H261.794ZM262.169 152.593C262.04 152.593 261.929 152.55 261.836 152.463C261.745 152.376 261.7 152.271 261.7 152.15C261.7 152.028 261.745 151.923 261.836 151.837C261.929 151.749 262.04 151.705 262.169 151.705C262.299 151.705 262.409 151.749 262.5 151.837C262.593 151.923 262.639 152.028 262.639 152.15C262.639 152.271 262.593 152.376 262.5 152.463C262.409 152.55 262.299 152.593 262.169 152.593ZM263.537 157V153.182H264.251V153.803H264.298C264.377 153.593 264.508 153.429 264.688 153.311C264.869 153.192 265.085 153.132 265.337 153.132C265.592 153.132 265.806 153.192 265.978 153.311C266.152 153.43 266.281 153.594 266.364 153.803H266.403C266.495 153.599 266.64 153.437 266.838 153.316C267.037 153.193 267.274 153.132 267.549 153.132C267.896 153.132 268.178 153.241 268.397 153.458C268.617 153.675 268.728 154.002 268.728 154.44V157H267.984V154.509C267.984 154.251 267.914 154.063 267.773 153.947C267.632 153.831 267.464 153.773 267.268 153.773C267.026 153.773 266.838 153.848 266.704 153.997C266.57 154.145 266.503 154.334 266.503 154.566V157H265.762V154.462C265.762 154.255 265.697 154.088 265.568 153.962C265.439 153.836 265.271 153.773 265.064 153.773C264.923 153.773 264.793 153.811 264.673 153.885C264.556 153.958 264.46 154.06 264.387 154.191C264.316 154.322 264.28 154.474 264.28 154.646V157H263.537ZM269.724 157V153.182H270.467V157H269.724ZM270.099 152.593C269.97 152.593 269.859 152.55 269.766 152.463C269.675 152.376 269.629 152.271 269.629 152.15C269.629 152.028 269.675 151.923 269.766 151.837C269.859 151.749 269.97 151.705 270.099 151.705C270.228 151.705 270.339 151.749 270.43 151.837C270.523 151.923 270.569 152.028 270.569 152.15C270.569 152.271 270.523 152.376 270.43 152.463C270.339 152.55 270.228 152.593 270.099 152.593ZM271.387 157V156.49L273.456 153.863V153.828H271.455V153.182H274.383V153.724L272.394 156.319V156.354H274.452V157H271.387ZM276.865 157.077C276.489 157.077 276.165 156.997 275.894 156.836C275.623 156.674 275.415 156.446 275.267 156.152C275.121 155.857 275.048 155.512 275.048 155.116C275.048 154.725 275.121 154.38 275.267 154.082C275.415 153.783 275.62 153.551 275.884 153.383C276.149 153.216 276.459 153.132 276.813 153.132C277.029 153.132 277.237 153.168 277.44 153.239C277.642 153.31 277.823 153.422 277.984 153.575C278.145 153.727 278.272 153.925 278.364 154.169C278.457 154.411 278.504 154.705 278.504 155.051V155.315H275.468V154.758H277.775C277.775 154.562 277.735 154.389 277.656 154.238C277.576 154.086 277.465 153.966 277.32 153.878C277.178 153.79 277.01 153.746 276.818 153.746C276.609 153.746 276.427 153.797 276.271 153.9C276.117 154.001 275.998 154.134 275.913 154.298C275.831 154.46 275.789 154.637 275.789 154.827V155.262C275.789 155.518 275.834 155.735 275.923 155.914C276.014 156.093 276.141 156.229 276.304 156.324C276.466 156.417 276.656 156.463 276.873 156.463C277.014 156.463 277.142 156.443 277.258 156.403C277.374 156.362 277.474 156.301 277.559 156.219C277.644 156.138 277.708 156.038 277.753 155.919L278.456 156.045C278.4 156.253 278.299 156.434 278.153 156.59C278.009 156.744 277.827 156.864 277.609 156.95C277.392 157.035 277.144 157.077 276.865 157.077ZM248.319 158.909V164H247.575V158.909H248.319ZM249.318 164V160.182H250.062V164H249.318ZM249.694 159.593C249.565 159.593 249.454 159.55 249.361 159.463C249.27 159.376 249.224 159.271 249.224 159.15C249.224 159.028 249.27 158.923 249.361 158.837C249.454 158.749 249.565 158.705 249.694 158.705C249.823 158.705 249.933 158.749 250.024 158.837C250.117 158.923 250.164 159.028 250.164 159.15C250.164 159.271 250.117 159.376 250.024 159.463C249.933 159.55 249.823 159.593 249.694 159.593ZM251.745 162.705L251.74 161.798H251.87L253.391 160.182H254.281L252.546 162.021H252.429L251.745 162.705ZM251.062 164V158.909H251.805V164H251.062ZM253.473 164L252.106 162.185L252.618 161.666L254.385 164H253.473ZM256.447 164.077C256.07 164.077 255.746 163.997 255.475 163.836C255.204 163.674 254.996 163.446 254.848 163.152C254.702 162.857 254.629 162.512 254.629 162.116C254.629 161.725 254.702 161.38 254.848 161.082C254.996 160.783 255.201 160.551 255.465 160.383C255.73 160.216 256.04 160.132 256.394 160.132C256.61 160.132 256.819 160.168 257.021 160.239C257.223 160.31 257.404 160.422 257.565 160.575C257.726 160.727 257.853 160.925 257.945 161.169C258.038 161.411 258.085 161.705 258.085 162.051V162.315H255.049V161.758H257.356C257.356 161.562 257.317 161.389 257.237 161.238C257.157 161.086 257.046 160.966 256.901 160.878C256.759 160.79 256.592 160.746 256.399 160.746C256.19 160.746 256.008 160.797 255.852 160.9C255.698 161.001 255.579 161.134 255.494 161.298C255.412 161.46 255.37 161.637 255.37 161.827V162.262C255.37 162.518 255.415 162.735 255.504 162.914C255.596 163.093 255.722 163.229 255.885 163.324C256.047 163.417 256.237 163.463 256.454 163.463C256.595 163.463 256.723 163.443 256.839 163.403C256.955 163.362 257.056 163.301 257.14 163.219C257.225 163.138 257.289 163.038 257.334 162.919L258.037 163.045C257.981 163.253 257.88 163.434 257.734 163.59C257.59 163.744 257.409 163.864 257.19 163.95C256.973 164.035 256.725 164.077 256.447 164.077ZM259.653 158.909V164H258.909V158.909H259.653ZM260.652 164V160.182H261.396V164H260.652ZM261.028 159.593C260.899 159.593 260.788 159.55 260.695 159.463C260.604 159.376 260.558 159.271 260.558 159.15C260.558 159.028 260.604 158.923 260.695 158.837C260.788 158.749 260.899 158.705 261.028 158.705C261.157 158.705 261.267 158.749 261.358 158.837C261.451 158.923 261.498 159.028 261.498 159.15C261.498 159.271 261.451 159.376 261.358 159.463C261.267 159.55 261.157 159.593 261.028 159.593ZM263.139 161.733V164H262.396V158.909H263.129V160.803H263.176C263.266 160.598 263.402 160.435 263.586 160.314C263.77 160.193 264.011 160.132 264.307 160.132C264.569 160.132 264.798 160.186 264.993 160.294C265.191 160.401 265.343 160.562 265.451 160.776C265.56 160.988 265.615 161.253 265.615 161.571V164H264.871V161.661C264.871 161.381 264.799 161.164 264.655 161.01C264.511 160.854 264.311 160.776 264.054 160.776C263.878 160.776 263.721 160.813 263.581 160.888C263.444 160.962 263.335 161.072 263.256 161.216C263.178 161.358 263.139 161.531 263.139 161.733ZM268.215 164.077C267.857 164.077 267.545 163.995 267.278 163.831C267.011 163.667 266.804 163.437 266.656 163.142C266.509 162.847 266.435 162.503 266.435 162.108C266.435 161.712 266.509 161.366 266.656 161.069C266.804 160.773 267.011 160.542 267.278 160.378C267.545 160.214 267.857 160.132 268.215 160.132C268.573 160.132 268.885 160.214 269.152 160.378C269.419 160.542 269.626 160.773 269.773 161.069C269.921 161.366 269.995 161.712 269.995 162.108C269.995 162.503 269.921 162.847 269.773 163.142C269.626 163.437 269.419 163.667 269.152 163.831C268.885 163.995 268.573 164.077 268.215 164.077ZM268.217 163.453C268.449 163.453 268.642 163.392 268.794 163.269C268.947 163.147 269.059 162.983 269.132 162.779C269.207 162.576 269.244 162.351 269.244 162.106C269.244 161.862 269.207 161.638 269.132 161.435C269.059 161.229 268.947 161.064 268.794 160.94C268.642 160.816 268.449 160.754 268.217 160.754C267.984 160.754 267.79 160.816 267.636 160.94C267.483 161.064 267.37 161.229 267.295 161.435C267.222 161.638 267.186 161.862 267.186 162.106C267.186 162.351 267.222 162.576 267.295 162.779C267.37 162.983 267.483 163.147 267.636 163.269C267.79 163.392 267.984 163.453 268.217 163.453ZM272.433 164.077C272.075 164.077 271.762 163.995 271.496 163.831C271.229 163.667 271.022 163.437 270.874 163.142C270.727 162.847 270.653 162.503 270.653 162.108C270.653 161.712 270.727 161.366 270.874 161.069C271.022 160.773 271.229 160.542 271.496 160.378C271.762 160.214 272.075 160.132 272.433 160.132C272.791 160.132 273.103 160.214 273.37 160.378C273.637 160.542 273.844 160.773 273.991 161.069C274.139 161.366 274.212 161.712 274.212 162.108C274.212 162.503 274.139 162.847 273.991 163.142C273.844 163.437 273.637 163.667 273.37 163.831C273.103 163.995 272.791 164.077 272.433 164.077ZM272.435 163.453C272.667 163.453 272.859 163.392 273.012 163.269C273.164 163.147 273.277 162.983 273.35 162.779C273.424 162.576 273.462 162.351 273.462 162.106C273.462 161.862 273.424 161.638 273.35 161.435C273.277 161.229 273.164 161.064 273.012 160.94C272.859 160.816 272.667 160.754 272.435 160.754C272.201 160.754 272.008 160.816 271.853 160.94C271.701 161.064 271.587 161.229 271.513 161.435C271.44 161.638 271.404 161.862 271.404 162.106C271.404 162.351 271.44 162.576 271.513 162.779C271.587 162.983 271.701 163.147 271.853 163.269C272.008 163.392 272.201 163.453 272.435 163.453ZM276.471 164.075C276.163 164.075 275.888 163.996 275.646 163.838C275.406 163.679 275.217 163.453 275.079 163.16C274.944 162.865 274.876 162.511 274.876 162.098C274.876 161.686 274.944 161.333 275.082 161.039C275.221 160.746 275.412 160.522 275.654 160.366C275.896 160.21 276.17 160.132 276.476 160.132C276.713 160.132 276.904 160.172 277.048 160.251C277.194 160.329 277.307 160.42 277.386 160.525C277.467 160.629 277.53 160.721 277.575 160.801H277.62V158.909H278.363V164H277.637V163.406H277.575C277.53 163.487 277.466 163.58 277.381 163.684C277.298 163.789 277.184 163.88 277.038 163.958C276.892 164.036 276.703 164.075 276.471 164.075ZM276.636 163.441C276.849 163.441 277.03 163.384 277.177 163.272C277.327 163.157 277.439 162.999 277.515 162.797C277.593 162.595 277.632 162.359 277.632 162.091C277.632 161.826 277.594 161.594 277.518 161.395C277.442 161.196 277.33 161.041 277.182 160.93C277.035 160.819 276.853 160.763 276.636 160.763C276.412 160.763 276.225 160.821 276.076 160.938C275.927 161.054 275.814 161.212 275.738 161.412C275.664 161.613 275.626 161.839 275.626 162.091C275.626 162.346 275.664 162.576 275.741 162.779C275.817 162.983 275.93 163.145 276.079 163.264C276.23 163.382 276.415 163.441 276.636 163.441Z" fill="#0A0A0A"/>
</svg>
