<svg width="593" height="315" viewBox="0 0 593 315" fill="none" xmlns="http://www.w3.org/2000/svg">
<rect width="593" height="315" rx="6" fill="#EEEEEE"/>
<line x1="140.5" y1="2.18557e-08" x2="140.5" y2="315" stroke="white"/>
<line x1="462.5" y1="2.18557e-08" x2="462.5" y2="315" stroke="white"/>
<line y1="272.5" x2="593" y2="272.5" stroke="white"/>
<line y1="229.5" x2="593" y2="229.5" stroke="white"/>
<line y1="186.5" x2="593" y2="186.5" stroke="white"/>
<line y1="142.5" x2="593" y2="142.5" stroke="white"/>
<line y1="98.5" x2="593" y2="98.5" stroke="white"/>
<line y1="55.5" x2="593" y2="55.5" stroke="white"/>
<line y1="14.5" x2="593" y2="14.5" stroke="white"/>
<circle cx="141" cy="260" r="6" fill="#FFA503"/>
<circle cx="141" cy="218" r="6" fill="#0000FF"/>
<circle cx="141" cy="156" r="6" fill="#751C47"/>
<path d="M462 223L468.062 233.5H455.938L462 223Z" fill="#FFA503"/>
<path d="M463 143L469.928 155H456.072L463 143Z" fill="#0000FF"/>
<path d="M463 15L469.928 27H456.072L463 15Z" fill="#751C47"/>
<line x1="144.903" y1="260.005" x2="461.903" y2="229.005" stroke="#FFA503" stroke-width="2"/>
<line x1="144.79" y1="217.022" x2="461.79" y2="149.022" stroke="#0000FF" stroke-width="2"/>
<line x1="139.613" y1="156.078" x2="461.613" y2="21.0778" stroke="#751C47" stroke-width="2"/>
<line y1="142.5" x2="593" y2="142.5" stroke="#FF0000" stroke-dasharray="2 2"/>
</svg>
